<svg width="776" height="398" viewBox="0 0 776 398" fill="none" xmlns="http://www.w3.org/2000/svg">
<path d="M38.7624 397.879C38.7624 397.879 -44.5981 220.272 119.696 220.272C206.504 220.272 170.743 171.541 229.761 115.146C288.779 58.75 495.174 13.6925 539.105 122.595C583.034 231.498 474.47 314.181 579.375 299.996C705.44 282.952 755.24 397.879 755.24 397.879H38.7624Z" fill="#FBECDB"/>
<path d="M713.9 375.344C706.121 369.656 690.227 373.498 678.494 377.604C676.742 375.141 674.616 372.601 672.045 370.119C697.319 353.831 732.225 319.093 713.724 316.152C697.641 313.597 675.937 344.865 664.336 363.897C652.291 355.79 633.834 349.83 605.655 351.898C532.521 357.262 475.387 310.065 433.272 325.805C399.788 338.321 369.099 345.334 339.505 342.938C340.779 321.306 341.056 278.836 324.077 274.431C306.841 269.959 323.746 318.191 333.144 342.274C330.939 341.991 328.739 341.655 326.545 341.265C320.461 329.263 310.435 313.556 299.424 313.016C289.056 312.511 301.851 326.631 314.446 338.595C278.255 330.992 235.323 360.428 234.609 395.23H686.447C686.447 395.23 685.648 390.149 682.1 383.452C699.563 383.11 722.349 381.522 713.898 375.344H713.9Z" fill="#A8D29F"/>
<path d="M333.174 368.331H214.085V395.236H333.174V368.331Z" fill="#4A75CB"/>
<path d="M296.452 368.331H177.366V395.238H296.452V368.331Z" fill="#699DEE"/>
<path d="M380.022 395.23H468.696V271.224H380.022V395.23Z" fill="#D86713"/>
<path d="M352.677 395.23H441.352V271.224H352.677V395.23Z" fill="#F1A34F"/>
<path d="M441.352 271.224L468.693 289.844V271.224H441.352Z" fill="#C95C12"/>
<path d="M167.623 298.692C167.623 298.692 151.039 311.03 147.807 310.281C144.572 309.531 159.927 296.963 159.927 296.963C154.15 294.184 136.192 295.927 136.192 295.927C136.192 295.927 130.209 315.228 127.26 313.706C124.311 312.184 133.429 296.886 133.429 296.886C126.994 296.497 119.103 301.279 119.103 301.279C108.299 309.815 119.814 323.256 119.814 323.256C119.814 323.256 117.596 329.9 110.773 335.952C110.773 335.952 101.03 343.162 100.352 356.043L102.121 356.203C102.121 356.203 104.925 344.204 110.021 338.53C110.219 338.324 110.507 338.029 110.861 337.672C111.693 336.902 112.274 336.326 112.663 335.895C115.199 333.459 118.702 330.352 120.392 330.051C120.392 330.051 120.306 329.741 120.321 329.201C120.345 329.473 120.368 329.753 120.392 330.051C120.97 336.843 134.142 342.776 142.246 343.994C150.349 345.213 147.843 341.882 145.053 336.94C142.261 331.998 133.426 329.788 131.409 327.511C129.392 325.236 133.561 325.23 138.442 327.46C143.322 329.691 143.991 335.639 151.824 339.392C159.656 343.144 171.439 330.142 171.439 330.142C165.197 329.827 156.285 323.044 156.607 320.97C156.928 318.896 171.737 324.548 174.267 324.82C176.797 325.091 182.559 321.94 183.45 311.738C184.34 301.536 167.626 298.692 167.626 298.692H167.623Z" fill="#82B378"/>
<path d="M79.5536 306.354C79.5536 306.354 97.8688 296.093 89.3231 282.164C89.3231 282.164 82.4847 273.611 75.1598 271.413C75.1598 271.413 79.067 292.183 75.1598 292.67C71.2526 293.16 72.4735 269.215 72.4735 269.215C72.4735 269.215 53.1792 259.93 45.6096 260.662C45.6096 260.662 57.576 280.943 53.6688 280.453C49.7615 279.963 36.3296 259.441 36.3296 259.441C36.3296 259.441 16.5488 255.776 13.373 267.504C10.1971 279.231 15.3251 285.097 18.2562 285.828C21.1874 286.56 39.9921 286.318 39.5026 288.761C39.0131 291.204 26.3154 295.113 19.2323 292.915C19.2323 292.915 27.0467 312.219 37.3057 311.24C47.5617 310.263 50.7376 303.908 57.0864 303.421C63.4353 302.931 68.0767 304.643 64.9009 306.354C61.725 308.065 50.9794 306.914 45.8514 311.275C40.7234 315.639 36.5714 318.326 46.0962 320.279C55.6209 322.235 72.7153 321.011 76.133 313.682L79.5507 306.354H79.5536Z" fill="#A8D29F"/>
<path d="M84.4369 324.189C79.3088 314.659 79.5536 306.351 79.5536 306.351C73.6913 287.782 22.4082 271.165 22.4082 271.165C87.6127 297.553 76.1359 313.68 76.1359 313.68C77.8934 314.706 80.5267 319.595 82.3579 323.348C82.6174 323.985 83.0303 324.87 83.6436 326.068C83.8913 326.611 84.0919 327.053 84.2275 327.363C87.5833 335.769 85.8051 350.281 85.8051 350.281L87.8398 350.827C92.3486 336.199 84.4398 324.183 84.4398 324.183L84.4369 324.189Z" fill="#82B378"/>
<path d="M108.691 292.198C108.691 292.198 84.546 278.671 95.8135 260.311C95.8135 260.311 104.828 249.038 114.485 246.14C114.485 246.14 109.334 273.517 114.485 274.163C119.637 274.806 118.027 243.243 118.027 243.243C118.027 243.243 143.458 231.005 153.44 231.97C153.44 231.97 137.666 258.703 142.815 258.06C147.967 257.417 165.671 230.362 165.671 230.362C165.671 230.362 191.748 225.529 195.932 240.992C200.117 256.452 193.358 264.182 189.495 265.149C185.632 266.117 160.844 265.793 161.487 269.014C162.13 272.236 178.87 277.387 188.206 274.49C188.206 274.49 177.906 299.934 164.386 298.648C150.865 297.358 146.681 288.985 138.309 288.342C129.94 287.699 123.821 289.953 128.009 292.207C132.193 294.461 146.359 292.945 153.118 298.695C159.877 304.445 165.35 307.988 152.797 310.564C140.244 313.14 117.709 311.532 113.2 301.866L108.694 292.204L108.691 292.198Z" fill="#A8D29F"/>
<path d="M184.022 245.819C184.022 245.819 116.42 267.719 108.694 292.198C108.694 292.198 109.015 303.15 102.257 315.709C102.257 315.709 91.8325 331.55 97.7744 350.83L100.458 350.11C100.458 350.11 98.1135 330.98 102.54 319.902C102.72 319.495 102.982 318.908 103.309 318.194C104.117 316.612 104.66 315.447 105.005 314.606C107.414 309.661 110.888 303.215 113.206 301.863C113.206 301.863 98.0752 280.606 184.028 245.822L184.022 245.819Z" fill="#82B378"/>
<path d="M107.88 392.645C134.001 392.645 155.173 371.459 155.173 345.328H60.5838C60.5838 371.462 81.7593 392.645 107.877 392.645H107.88Z" fill="#F1A34F"/>
<path d="M119.516 392.282C117.594 392.521 115.633 392.645 113.639 392.645C87.5213 392.645 66.3487 371.459 66.3487 345.328H78.0969C78.0969 369.47 96.1673 389.388 119.516 392.285V392.282Z" fill="#FFB973"/>
<path d="M149.992 389.391H65.7648C62.5418 389.391 59.9291 392.005 59.9291 395.23H155.825C155.825 392.005 153.212 389.391 149.989 389.391H149.992Z" fill="#F1A34F"/>
<path d="M155.524 345.328H59.7551C59.3541 345.328 59.0297 345.652 59.0297 346.054C59.0297 346.455 59.3541 346.779 59.7551 346.779H155.524C155.925 346.779 156.25 346.455 156.25 346.054C156.25 345.652 155.925 345.328 155.524 345.328Z" fill="#D86713"/>
<path d="M520.472 96.1543C519.101 95.9448 514.969 99.7685 514.969 99.7685C506.149 100.789 493.251 103.132 488.61 104.026C485.319 104.66 476.469 101.642 467.823 98.1753C457.541 94.0507 447.55 89.2948 447.55 89.2948C441.844 89.0027 435.366 99.4174 446.937 106.041C448.703 107.053 455.341 108.776 462.981 110.351C473.524 112.523 485.976 114.411 490.217 113.747C495.141 112.977 509.081 107.876 517.373 103.967C517.373 103.967 517.381 103.964 517.393 103.958C517.426 103.943 517.455 103.928 517.485 103.914C517.983 103.681 520.012 102.778 521.365 102.857C522.919 102.949 526.378 100.105 526.485 99.3466C526.591 98.5883 521.84 96.3667 520.469 96.1572L520.472 96.1543Z" fill="#ED975D"/>
<path d="M509.703 227.35L504.846 228.338C504.846 228.338 482.621 203.355 479.191 192.84C477.357 187.222 465.624 184.794 453.359 181.623C442.688 178.861 431.615 175.536 426.325 169.045C414.957 155.102 433.464 137.966 433.464 137.966C433.464 137.966 453.138 149.667 470.115 161.752C481.978 170.199 492.523 178.834 494.112 183.797C497.969 195.867 506.155 218.809 509.703 227.35Z" fill="#2B478B"/>
<path d="M503.201 235.593H505.931C506.845 235.448 507.521 235.183 508.461 235.062C509.886 234.876 510.543 235.46 510.673 235.593C510.691 235.611 510.699 235.62 510.699 235.62H522.303C522.595 235.204 522.315 234.236 522.041 233.525C521.855 233.041 521.454 232.675 520.955 232.531C519.726 232.174 517.299 231.855 515.078 229.843C513.828 228.713 509.042 225.689 509.042 225.689L509.016 225.683C508.909 225.683 508.411 225.839 506.232 227.677C505.105 228.627 503.189 226.338 503.189 226.338C503.189 226.338 502.829 226.636 502.561 227.19C502.345 227.63 502.186 228.232 502.31 228.972C502.484 230.02 501.924 231.964 501.478 233.277C501.207 234.074 500.98 234.64 500.98 234.64C500.98 234.64 500.85 235.295 503.201 235.59V235.593Z" fill="#233862"/>
<path d="M470.115 161.752L453.359 181.623C442.688 178.861 431.615 175.536 426.325 169.045C414.957 155.102 433.464 137.966 433.464 137.966C433.464 137.966 453.138 149.667 470.115 161.752Z" fill="#1E3D70"/>
<path d="M454.89 151.376C454.89 151.376 453.539 155.636 451.339 162.047C448.559 170.155 444.419 181.696 439.925 192.4C438.937 194.751 437.934 197.065 436.923 199.292C433.186 207.529 429.362 214.59 425.997 218.18C419.946 224.632 405.24 266.102 405.24 266.102L401.575 265.087C401.575 265.087 396.465 229.675 414.565 209.524C414.759 209.308 414.91 209.061 414.93 208.771C414.93 208.771 414.93 208.766 414.93 208.763C415.172 205.78 416.033 192.421 417.906 178.888C418.366 175.565 418.888 172.237 419.474 169.048C419.51 168.845 419.551 168.641 419.586 168.44C422.341 153.689 424.977 147.127 428.38 143.829L453.404 150.957L454.884 151.379L454.89 151.376Z" fill="#2B478B"/>
<path d="M401.165 271.195H403.896C404.81 271.05 405.485 270.785 406.426 270.664C407.85 270.478 408.508 271.062 408.637 271.195C408.655 271.212 408.664 271.221 408.664 271.221H420.268C420.559 270.805 420.279 269.837 420.005 269.126C419.819 268.643 419.418 268.277 418.92 268.132C417.69 267.775 415.263 267.459 413.043 265.447C411.793 264.317 407.007 261.29 407.007 261.29L406.98 261.284C406.874 261.284 406.376 261.441 404.196 263.279C403.07 264.229 401.153 261.939 401.153 261.939C401.153 261.939 400.793 262.237 400.525 262.792C400.31 263.229 400.151 263.834 400.277 264.574C400.451 265.621 399.891 267.566 399.446 268.879C399.175 269.675 398.948 270.242 398.948 270.242C398.948 270.242 398.818 270.9 401.168 271.192L401.165 271.195Z" fill="#233862"/>
<path d="M406.532 103.211C406.532 103.211 402.345 113.461 397.517 123.436C393.457 131.824 388.945 140.017 386.085 141.763C382.051 144.23 370.94 151.184 363.73 156.371C363.73 156.371 358.103 156.329 357.23 157.406C356.358 158.483 354.341 163.325 354.927 163.814C355.517 164.304 359.988 164.077 361.076 162.962C362.022 161.991 364.134 161.292 364.659 161.129C364.691 161.121 364.723 161.109 364.756 161.1C364.771 161.097 364.779 161.094 364.779 161.094C373.54 158.397 387.279 152.78 391.437 150.033C395.017 147.667 402.958 137.884 409.289 129.177C413.88 122.864 417.625 117.119 418.251 115.181C422.349 102.492 410.551 99.1548 406.529 103.214L406.532 103.211Z" fill="#FFB27D"/>
<path d="M428.43 63.025C427.932 62.2992 427.43 61.659 426.929 61.0866C427.548 61.0984 428.221 61.0394 428.778 60.8093C430.246 60.2015 430.919 55.5341 430.698 54.1474C430.476 52.7637 428.436 48.7601 425.918 48.3589C423.399 47.9606 420.798 50.7575 420.798 50.7575C421.264 48.7395 425.522 47.5741 425.522 47.5741C416.75 49.1938 417.195 55.0473 417.257 55.5872C409.224 52.7254 404.512 67.8576 404.512 67.8576L425.316 80.1222C425.316 80.1222 425.369 76.7794 427.357 76.9948C430.453 77.3312 433.027 69.7252 428.433 63.025H428.43Z" fill="#2C3A64"/>
<path d="M429.757 94.7765C424.983 97.0276 418.649 93.7851 418.684 93.7497C419.094 93.3396 418.949 92.1153 418.575 90.5103C418.2 88.8374 417.313 86.5539 415.676 83.8248C415.334 83.2436 414.995 82.6653 414.585 82.0517L415.131 81.8481L424.405 78.1307C424.405 78.1307 425.906 80.8243 427.475 83.282C428.804 85.3295 430.202 87.1705 430.816 87.1026C430.851 87.0672 436.987 91.298 429.76 94.7794L429.757 94.7765Z" fill="#FFB27D"/>
<path d="M424.402 79.0483C424.163 82.3556 423.039 88.3271 418.572 90.5103C418.197 88.8375 417.31 86.5539 415.673 83.8249L424.402 79.0483Z" fill="#ED975D"/>
<path d="M415.131 87.5924C415.131 87.5924 427.203 82.8306 424.125 75.3545C421.046 67.8783 420.53 62.2284 412.692 64.9516C404.854 67.6747 404.539 71.1414 404.96 73.8881C405.382 76.6349 411.911 88.6398 415.131 87.5924Z" fill="#FFB27D"/>
<path d="M419.637 73.6492C425.21 72.8614 426.838 70.6074 426.838 70.6074C426.838 70.6074 421.704 69.1322 418.687 64.1019C418.687 64.1019 412.421 61.9865 407.776 65.521C407.493 65.8898 407.29 66.3205 407.19 66.8309C406.125 66.4828 404.524 66.5713 403.601 69.5836C402.212 74.1035 407.148 79.0424 407.148 79.0424C408.345 78.7031 406.995 74.6759 406.806 72.5251C406.668 70.9437 407.52 68.9168 407.98 67.955C408.57 68.7221 414.452 76.1156 421.633 76.4107C421.633 76.4107 417.841 75.0948 414.388 72.5192C416.104 73.363 417.929 73.8911 419.634 73.6492H419.637Z" fill="#2C3A64"/>
<path d="M452.743 110.18C452.64 109.82 452.531 109.446 452.416 109.062C454.209 105.634 455.09 102.542 455.462 99.9278C456.282 94.4018 454.884 90.9912 454.884 90.9912C454.884 90.9912 446.509 86.548 442.811 85.9816C442.797 85.9757 442.779 85.9698 442.764 85.9668C442.72 85.9609 442.67 85.955 442.617 85.9521C438.884 85.4357 430.804 87.0879 430.804 87.0879C430.804 87.0879 432.364 91.2391 427.964 94.0094C423.567 96.7768 418.87 93.3013 418.87 93.3013C418.728 93.3957 418.578 93.502 418.422 93.6111C418.422 93.6111 406.85 101.25 405.809 102.996C404.771 104.743 400.319 113.384 400.319 113.384C400.319 113.384 401.731 120.642 417.363 121.247C418.649 124.365 419.631 127.407 419.952 129.944C421.194 139.796 419.752 147.564 421.199 153.314C422.647 159.064 448.73 155.786 453.454 154.68C458.178 153.574 457.113 148.529 457.479 143.625C457.936 137.465 454.282 115.618 452.743 110.183V110.18Z" fill="#699DEE"/>
<path d="M455.462 99.9277C455.087 102.554 454.2 105.657 452.392 109.103C451.982 107.295 450.313 100.677 447.618 97.6766C447.618 97.6766 452.153 98.0867 455.459 99.9277H455.462Z" fill="#4A82D3"/>
<path d="M349.26 164.484C349.26 164.484 354.119 158.592 355.166 157.896C356.213 157.2 360.801 155.978 361.064 156.223C361.326 156.468 361.338 156.825 360.769 157.327C360.2 157.828 358.03 159.097 358.339 159.238C358.649 159.38 365.198 156.12 366.142 157.217C367.085 158.315 365.608 162.844 363.084 165.015C360.56 167.187 353.028 168.113 352.554 168.414C348.537 170.984 349.26 164.481 349.26 164.481V164.484Z" fill="#ED975D"/>
<path d="M263.705 150.877C263.705 150.877 270.685 159.165 279.576 155.698C279.576 155.698 281.49 151.069 281.516 147.658C281.516 147.239 281.525 146.832 281.531 146.446C281.578 142.604 281.708 140.448 281.708 140.448C281.708 140.448 281.708 140.448 281.699 140.448C281.295 140.28 268.108 134.863 268.12 135.311C268.347 145.702 263.705 150.877 263.705 150.877Z" fill="#FFB27D"/>
<path d="M269.444 137.789C270.715 140.147 275.079 144.761 281.531 146.446C281.578 142.604 281.708 140.448 281.708 140.448C281.708 140.448 281.708 140.448 281.699 140.448C281.333 140.35 269.066 137.096 269.444 137.789Z" fill="#ED975D"/>
<path d="M284.471 140.049C284.471 140.049 269.641 143.537 267.612 134.264C265.584 124.991 262.305 119.196 271.685 116.577C281.068 113.957 283.687 117.093 285.117 120.023C286.547 122.952 288.275 138.902 284.471 140.049Z" fill="#FFB27D"/>
<path d="M268.12 136.792C267.916 136.922 264.726 137.902 258.683 125.858C257.734 123.967 257.088 119.878 259.3 116.264C261.511 112.65 269.352 109.808 275.866 108.572C282.38 107.336 283.943 111.003 285.479 114.688C287.089 118.556 291.74 121.743 291.74 121.743C286.122 124.882 279.358 120.391 277.013 121.129C274.669 121.866 273.84 125.563 273.666 126.749C273.489 127.932 273.221 128.918 270.272 127.859C267.323 126.799 268.939 132.039 269.411 133.039C269.411 133.039 269.812 135.707 268.123 136.789L268.12 136.792Z" fill="#A9453D"/>
<path d="M229.92 368.331H220.941C219.06 368.331 216.966 366.42 216.444 362.924C215.919 359.421 212.051 357.516 211.213 354.651C210.376 351.786 214.666 347.756 214.666 347.756L215.383 346.821L216.129 345.847L223.241 347.543C223.241 347.543 223.415 349.261 223.527 351.447C223.604 353.025 223.645 354.851 223.557 356.453C223.348 360.274 224.613 364.384 227.957 365.127C231.303 365.871 229.92 368.334 229.92 368.334V368.331Z" fill="#2C3A64"/>
<path d="M292.43 368.417H268.63C268.403 368.37 268.229 368.32 268.126 368.267C266.536 367.446 267.034 361.18 267.226 359.244C267.262 358.887 267.288 358.675 267.288 358.675C267.288 358.675 275.657 351.78 276.81 357.058C276.845 357.223 276.889 357.386 276.934 357.545C278.387 362.487 284.881 364.732 288.632 365.358C291.498 365.838 292.241 367.558 292.433 368.417H292.43Z" fill="#2C3A64"/>
<path d="M287.632 230.71C287.632 230.71 286.361 246.577 284.866 265.648C282.834 291.558 280.393 323.38 280.151 329.408C279.732 339.876 278.057 356.622 278.057 356.622C278.057 356.622 274.085 360.599 266.132 358.923C266.132 358.923 259.046 335.019 257.02 309.726C256.988 309.31 256.958 308.894 256.926 308.475C255.045 282.728 252.113 228.509 252.113 228.509L287.626 230.707L287.632 230.71Z" fill="#EE9849"/>
<path d="M287.632 230.71C287.632 230.71 286.361 246.577 284.866 265.648L257.023 309.729C256.991 309.313 256.961 308.897 256.929 308.478C255.047 282.73 252.116 228.512 252.116 228.512L287.629 230.71H287.632Z" fill="#E58638"/>
<path d="M281.826 232.595C281.826 232.595 258.916 290.056 243.851 317.061C228.785 344.065 224.079 351.6 224.079 351.6C224.079 351.6 215.448 348.145 214.663 345.791C214.663 345.791 220.425 293.659 230.513 280.949C236.213 273.767 242.91 252.218 243.223 244.683C243.535 237.148 245.263 222.231 245.263 222.231L281.826 232.593V232.595Z" fill="#EE9849"/>
<path d="M229.372 223.025C229.372 223.025 228.779 230.2 228.343 231.303C227.909 232.404 225.011 235.82 224.677 235.773C224.344 235.726 224.141 235.454 224.312 234.761C224.483 234.065 225.48 231.917 225.164 231.973C224.848 232.029 221.531 238.08 220.213 237.738C218.892 237.396 217.6 233.094 218.388 230.055C219.175 227.016 224.506 222.246 224.71 221.756C226.438 217.605 229.375 223.025 229.375 223.025H229.372Z" fill="#ED975D"/>
<path d="M226.913 224.845C229.449 225.659 229.856 225.476 229.856 225.476C229.856 225.476 242.196 202.995 243.447 200.935C244.697 198.876 269.653 175.725 269.653 175.725L263.239 151.798C263.239 151.798 234.857 188.571 231.79 193.849C226.724 202.567 223.757 222.821 223.757 222.821C223.757 222.821 224.919 224.208 226.913 224.848V224.845Z" fill="#1E3D70"/>
<path d="M292.468 185.116C292.38 190.031 292.094 195.554 291.71 201.163C291.687 201.496 291.663 201.829 291.639 202.16C291.392 205.635 291.126 209.12 290.82 212.515C290.696 213.879 290.566 215.224 290.43 216.546L290.41 216.723C290.398 217.218 290.339 217.755 290.283 218.245C289.033 230.97 287.72 241.022 287.476 241.175C287.184 241.37 286.856 241.467 286.5 241.423C283.165 241.004 273.215 241.762 265.068 239.986C258.194 238.534 252.276 235.785 246 232.076C245.169 231.583 243.27 230.279 243.423 229.306C243.574 228.235 243.854 226.686 244.21 224.742C245.446 217.974 247.578 206.332 248.306 192.707C248.448 190.17 248.654 187.662 248.923 185.198C249.622 178.778 250.742 172.68 252.246 167.263C255.039 157.2 259.143 149.496 264.292 146.481C264.964 146.103 268.586 148.408 271.909 150.544C274.979 152.515 278.213 153.057 281.357 152.783L284.123 155.845C287.473 159.743 291.041 164.933 292.017 172.305C292.091 172.851 292.153 173.429 292.206 174.043C292.477 177.047 292.542 180.85 292.465 185.11L292.468 185.116Z" fill="#2A4E96"/>
<path d="M292.468 185.116C292.38 190.031 292.094 195.554 291.71 201.163C291.687 201.496 291.663 201.829 291.64 202.16C272.59 190.229 269.656 168.399 269.656 168.399C279.027 168.809 286.473 170.966 292.212 174.049C292.483 177.052 292.548 180.855 292.471 185.116H292.468Z" fill="#1E3D70"/>
<path d="M352.152 165.071C351.171 162.413 349.643 162.587 349.643 162.587C349.643 162.587 321.32 169.65 318.778 169.951C316.236 170.255 288.278 159.029 288.278 159.029C288.278 159.029 277.273 154.087 272.118 158.598C267.639 162.519 267.435 167.485 268.482 171.656C269.733 176.628 273.935 180.298 279.016 180.947C290.422 182.401 313.181 185.136 317.949 184.473C328.565 182.994 352.621 169.101 352.621 169.101C352.621 169.101 352.922 167.157 352.152 165.071Z" fill="#2A4E96"/>
<path d="M631.445 217.015C631.445 217.015 635.379 220.664 634.612 223.258C633.846 225.851 630.292 227.58 629.815 230.749C629.334 233.917 627.414 235.646 625.686 235.646H617.45C617.45 235.646 616.179 233.416 619.249 232.743C622.322 232.07 623.478 228.347 623.286 224.889C623.094 221.431 623.575 216.823 623.575 216.823L630.101 215.286L631.445 217.015Z" fill="#2C3A64"/>
<path d="M582.4 235.212C582.002 235.413 580.599 235.552 578.673 235.643H560.048C560.11 235.089 560.544 233.112 563.59 232.622C567.031 232.061 572.991 230.061 574.32 225.659C574.365 225.518 574.403 225.373 574.435 225.229C575.491 220.523 583.167 226.668 583.167 226.668C583.167 226.668 583.191 226.857 583.223 227.179C583.403 228.908 583.857 234.49 582.4 235.215V235.212Z" fill="#2C3A64"/>
<path d="M564.501 109.36C564.501 109.36 565.666 123.917 567.037 141.415C568.901 165.186 571.142 194.383 571.363 199.915C571.746 209.518 573.282 224.883 573.282 224.883C573.282 224.883 576.927 228.533 584.226 226.996C584.226 226.996 590.728 205.063 592.586 181.859C592.615 181.478 592.645 181.094 592.671 180.711C594.399 157.088 597.085 107.345 597.085 107.345L564.504 109.36H564.501Z" fill="#35488B"/>
<path d="M564.501 109.36C564.501 109.36 565.666 123.917 567.037 141.415L592.583 181.856C592.612 181.475 592.642 181.091 592.668 180.708C594.396 157.085 597.083 107.342 597.083 107.342L564.501 109.357V109.36Z" fill="#2C3A64"/>
<path d="M569.826 111.089C569.826 111.089 590.846 163.808 604.667 188.582C618.488 213.356 622.808 220.272 622.808 220.272C622.808 220.272 630.726 217.103 631.445 214.944C631.445 214.944 626.161 167.113 616.905 155.456C611.673 148.868 605.531 129.098 605.245 122.182C604.956 115.27 603.372 101.583 603.372 101.583L569.829 111.089H569.826Z" fill="#35488B"/>
<path d="M504.993 82.4943C504.993 82.4943 499.293 81.1902 498.332 81.2552C497.374 81.3201 494.015 82.7274 493.971 82.9988C493.926 83.2702 494.086 83.4915 494.664 83.5328C495.245 83.5712 497.153 83.3263 497.032 83.5594C496.911 83.7895 491.411 84.8723 491.352 85.9786C491.29 87.085 494.304 89.1443 496.849 89.283C499.394 89.4217 504.398 86.4625 504.828 86.4241C508.467 86.1055 504.991 82.4972 504.991 82.4972L504.993 82.4943Z" fill="#FFB27D"/>
<path d="M502.555 83.9429C501.738 81.3377 501.93 80.9217 501.93 80.9217C501.93 80.9217 525.04 68.4182 527.157 67.1496C529.274 65.881 553.157 40.452 553.157 40.452L577.62 47.1876C577.62 47.1876 539.763 76.0389 534.337 79.1486C525.373 84.2822 504.61 87.1883 504.61 87.1883C504.61 87.1883 503.198 85.9875 502.555 83.9399V83.9429Z" fill="#E58638"/>
<path d="M560.567 28.0931C560.567 28.0931 551.992 43.1899 543.608 45.1608C543.608 45.1608 543.956 40.0891 546 36.6195C545.165 35.6341 544.431 34.7284 543.794 33.917C541.683 31.2116 540.68 29.5564 540.68 29.5564L543.526 21.9033L545.457 16.7107C546.386 18.3953 547.406 19.8321 548.474 21.0595C553.968 27.3791 560.57 28.0931 560.57 28.0931H560.567Z" fill="#FFB27D"/>
<path d="M548.471 21.0595C548.471 21.0595 549.494 28.6242 543.791 33.9171C541.68 31.2116 540.677 29.5565 540.677 29.5565L543.523 21.9033C546.572 20.9739 548.471 21.0595 548.471 21.0595Z" fill="#ED975D"/>
<path d="M538.418 30.6716C538.418 30.6716 551.234 25.6738 547.999 17.7374C544.764 9.80099 544.242 3.81181 535.924 6.66773C527.605 9.52366 527.26 13.1968 527.697 16.1088C528.133 19.0208 535.004 31.7692 538.421 30.6746L538.418 30.6716Z" fill="#FFB27D"/>
<path d="M604.614 105.566C599.445 113.001 560.797 122.937 561.254 117.789C561.428 115.818 561.664 112.346 561.248 107.637C561.151 106.534 561.015 105.365 560.838 104.129C559.856 97.3669 557.524 88.6693 552.322 78.6057C551.933 77.8504 551.526 77.0922 551.104 76.3222C548.963 72.4248 547.138 68.3061 545.746 64.276C543.069 56.5343 541.99 49.126 543.34 44.2845C543.346 44.2609 543.355 44.2402 543.361 44.2166C551.44 40.4786 554.569 25.9836 554.569 25.9836C554.569 25.9836 582.132 30.9342 597.569 67.6924C597.569 67.6924 609.108 99.0928 604.611 105.566H604.614Z" fill="#EE9849"/>
<path d="M561.248 107.637C561.151 106.534 561.015 105.365 560.838 104.129C559.856 97.3669 557.524 88.6693 552.322 78.6057C553.216 73.1889 554.448 68.6838 555.802 66.6569C561.298 58.4137 564.501 57.1273 564.501 57.1273C564.501 57.1273 572.746 91.9088 561.248 107.637Z" fill="#E58638"/>
<path d="M517.803 99.3614C517.803 99.3614 510.177 99.7626 508.998 100.187C507.815 100.612 504.103 103.577 504.144 103.934C504.185 104.291 504.466 104.513 505.206 104.356C505.949 104.197 508.258 103.209 508.187 103.542C508.116 103.875 501.599 107.2 501.918 108.611C502.236 110.024 506.754 111.529 510.001 110.794C513.247 110.056 518.473 104.551 518.997 104.35C523.453 102.651 517.8 99.3614 517.8 99.3614H517.803Z" fill="#FFB27D"/>
<path d="M516.364 102.256C514.837 99.7862 515.937 98.6592 515.937 98.6592C515.937 98.6592 539.489 80.2078 541.335 78.3432C543.181 76.4786 551.732 46.7982 551.732 46.7982C551.732 46.7982 554.675 34.7874 561.57 33.4627C567.559 32.3121 571.699 35.2772 574.409 38.7527C577.638 42.8949 577.953 48.6068 575.276 53.1237C569.263 63.2611 557.132 83.3883 553.587 86.8254C545.702 94.4786 519.322 105.171 519.322 105.171C519.322 105.171 517.561 104.191 516.361 102.253L516.364 102.256Z" fill="#EE9849"/>
<path d="M549.839 2.99459C549.928 2.81757 550.19 2.62875 550.827 2.43403C550.827 2.43403 550.231 2.2334 549.536 2.38682C549.176 1.50762 548.303 0.0118013 546.66 0C546.66 0 547.601 0.244878 547.949 1.18603C545.702 -0.238977 541.535 -0.652024 531.135 2.81167C517.429 7.37878 524.276 15.3417 526.352 15.979C528.431 16.6163 532.255 12.5212 535.694 11.9607C539.132 11.4001 540.996 16.1944 542.305 16.5927C543.617 16.991 542.871 15.8993 544.245 14.8077C545.62 13.7161 546.407 16.2858 546.377 18.0914C546.348 19.8971 549.025 21.6082 549.025 21.6082L550.597 18.7258C552.169 15.8433 551.741 5.38141 550.24 3.49615C550.108 3.33093 549.975 3.15981 549.839 2.99164V2.99459Z" fill="#2B478B"/>
<path d="M1.0203 395.23H774.98C775.543 395.23 776 395.687 776 396.25V396.979C776 397.543 775.543 398 774.98 398H1.0203C0.457069 398 0 397.543 0 396.979V396.25C0 395.687 0.457069 395.23 1.0203 395.23Z" fill="#2E3552"/>
<path d="M333.174 368.028V383.549L296.452 368.028H333.174Z" fill="#4271BC"/>
<path d="M647.425 235.643H525.986V395.23H647.425V235.643Z" fill="#4A75CB"/>
<path d="M609.981 235.643H488.539V395.23H609.981V235.643Z" fill="#699DEE"/>
<path d="M647.425 235.643V259.508L609.981 235.643H647.425Z" fill="#4271BC"/>
</svg>
