<svg width="770" height="479" viewBox="0 0 770 479" fill="none" xmlns="http://www.w3.org/2000/svg">
<path d="M742.689 477.896H79.1702C79.1702 477.896 -10.843 389.721 46.4247 285.976C103.692 182.231 180.606 234.404 176.884 113.655C173.162 -7.09277 353.774 -17.4667 411.264 17.5438C468.754 52.5572 468.408 94.725 587.089 80.771C705.771 66.8199 728.444 183.122 697.568 242.397C695.476 246.413 693.863 250.204 692.675 253.801C692.438 254.511 692.222 255.212 692.02 255.904C671.779 325.498 829.56 334.773 742.689 477.896Z" fill="#EBF3FA"/>
<path d="M131.772 476.794H170.398C172.467 475.04 168.967 471.053 165.305 470.785C163.716 470.664 161.707 470.998 159.411 471.483C158.88 464.424 155.845 432.691 144.404 433.966C131.542 435.394 144.404 447.94 148.04 455.368C150.735 460.87 153.574 468.76 154.872 472.484C153.828 472.709 152.746 472.931 151.644 473.136C149.938 467.903 143.593 450.297 135.526 451.321C126.054 452.521 129.862 459.58 136.576 463.772C141.502 466.853 147.549 471.232 150.423 473.35C147.988 473.748 145.446 474.016 142.869 473.955C136.253 473.8 133.022 475.747 131.769 476.797L131.772 476.794Z" fill="#A8D29F"/>
<path d="M716.072 476.794H685.606C683.973 475.409 686.737 472.265 689.622 472.054C690.874 471.959 692.461 472.222 694.273 472.605C694.692 467.038 697.086 442.009 706.109 443.015C716.254 444.141 706.109 454.039 703.241 459.898C701.117 464.236 698.875 470.462 697.851 473.399C698.673 473.578 699.527 473.754 700.399 473.912C701.743 469.784 706.746 455.896 713.109 456.707C720.579 457.653 717.578 463.221 712.28 466.527C708.397 468.956 703.625 472.412 701.36 474.08C703.281 474.394 705.284 474.605 707.318 474.556C712.537 474.431 715.085 475.969 716.072 476.797V476.794Z" fill="#A8D29F"/>
<path d="M209.433 294.449C209.433 294.449 202.944 234.767 157.576 222.668C157.576 222.668 148.732 220.452 144.514 229.967C140.296 239.484 158.144 241.769 168.687 247.114C179.23 252.46 202.872 272.512 209.431 294.446L209.433 294.449Z" fill="#DFEBFD"/>
<path d="M209.829 288.298C209.829 288.298 177.611 252.939 153.556 258.094C129.502 263.249 136.963 274.656 144.211 273.412C151.459 272.166 165.502 266.945 178.832 272.775C192.165 278.602 209.826 288.298 209.826 288.298H209.829Z" fill="#DFEBFD"/>
<path d="M599.658 438.971C599.658 438.971 607.388 367.882 661.427 353.47C661.427 353.47 671.961 350.83 676.984 362.165C682.008 373.499 660.749 376.223 648.189 382.592C635.629 388.959 607.471 412.846 599.658 438.971Z" fill="#DFEBFD"/>
<path d="M599.191 431.646C599.191 431.646 637.565 389.528 666.216 395.669C694.868 401.811 685.981 415.399 677.348 413.913C668.715 412.43 651.989 406.211 636.111 413.154C620.23 420.098 599.193 431.646 599.193 431.646H599.191Z" fill="#DFEBFD"/>
<path d="M203.08 316.077C203.08 316.077 205.146 348.822 199.029 348.831C192.912 348.84 199.358 312.176 199.358 312.176C199.358 312.176 171.382 294.192 159.569 293.878C159.569 293.878 174.155 327.408 168.223 325.911C162.29 324.414 145.492 290.228 145.492 290.228C145.492 290.228 115.69 280.809 108.56 298.274C101.43 315.739 108.22 325.752 112.599 327.443C116.979 329.13 146.02 332.341 144.8 336.011C143.582 339.683 123.255 343.284 112.755 338.547C112.755 338.547 121.126 369.778 137.127 370.228C153.129 370.678 159.235 361.496 169.117 361.951C178.999 362.41 185.829 365.93 180.606 367.96C175.384 369.991 159.036 366.169 150.299 371.913C141.559 377.656 134.646 381.006 148.96 385.835C163.274 390.661 189.865 392.04 196.533 381.398C196.825 380.934 197.102 380.492 197.367 380.068C196.934 380.962 196.533 381.398 196.533 381.398C199.046 383.314 202.177 391.351 204.28 397.481C204.56 398.514 205.028 399.953 205.743 401.921C206.023 402.804 206.245 403.525 206.395 404.03C209.97 417.62 204.462 439.643 204.462 439.643L207.495 440.875C217.235 419.195 207.33 399.175 207.33 399.175C201.239 383.513 203.198 370.759 203.198 370.759C203.198 370.759 233.396 358.438 222.87 335.35C222.87 335.35 213.958 320.868 203.08 316.085V316.077Z" fill="#CDDFF9"/>
<path d="M653.51 263.968C648.123 241.085 609.566 246.881 609.566 246.881C609.566 246.881 582.21 285.688 574.608 286.377C567.008 287.066 591.51 248.637 591.51 248.637C576.893 246.728 538.913 263.419 538.913 263.419C538.913 263.419 539.718 309.796 532.182 308.596C524.646 307.396 533.567 267.496 533.567 267.496C519.23 271.269 505.426 287.358 505.426 287.358C487.962 313.728 522.773 334.765 522.773 334.765C522.773 334.765 522.704 350.842 512.149 368.933C512.149 368.933 509.792 372.259 507.319 377.965L511.188 378.095C511.54 377.071 511.921 376.078 512.34 375.132C512.34 375.124 512.34 375.121 512.348 375.115C512.354 375.1 512.36 375.089 512.366 375.075C512.651 374.486 513.061 373.649 513.569 372.631C513.569 372.631 513.569 372.625 513.569 372.622C514.83 370.352 515.684 368.67 516.232 367.456C516.232 367.453 516.235 367.447 516.235 367.444C520.02 360.31 525.442 351.029 528.913 349.163C528.913 349.163 528.506 348.548 528.145 347.363C528.391 347.937 528.647 348.534 528.913 349.163C535.059 363.558 568.096 367.037 586.674 363.878C605.253 360.719 597.384 355.253 587.733 346.483C578.082 337.713 557.192 339.236 551.153 335.722C545.114 332.209 554.214 329.205 566.483 330.564C578.751 331.923 584.487 344.414 604.292 346.973C624.097 349.532 640.494 312.721 640.494 312.721C626.63 316.512 602.286 308.123 601.499 303.369C600.711 298.612 637.124 300.311 642.848 299.085C648.573 297.859 658.891 286.856 653.504 263.97L653.51 263.968Z" fill="#DFEBFD"/>
<path d="M489.026 159.859C489.026 159.859 510.118 152.165 512.995 160.745C515.871 169.327 489.026 159.859 489.026 159.859C489.026 159.859 489.442 161.166 489.026 159.859Z" fill="#A0D694"/>
<path d="M505.767 172.405C502.599 179.638 489.018 159.868 489.018 159.868C489.018 159.868 508.938 165.173 505.767 172.405Z" fill="#A0D694"/>
<path d="M429.713 114.72C429.713 114.72 426.9 89.789 436.978 88.9236C447.056 88.0581 429.713 114.72 429.713 114.72C429.713 114.72 431.242 114.613 429.713 114.72Z" fill="#A8D29F"/>
<path d="M447.743 99.8399C454.766 105.183 429.719 114.734 429.719 114.734C429.719 114.734 440.72 94.4971 447.743 99.8399Z" fill="#A8D29F"/>
<path d="M308.908 86.6821C308.908 86.6821 288.145 67.4661 296.114 59.3078C304.08 51.1494 308.908 86.6821 308.908 86.6821C308.908 86.6821 310.134 85.4647 308.908 86.6821Z" fill="#A0D694"/>
<path d="M313.345 60.704C323.276 60.0953 308.922 86.6907 308.922 86.6907C308.922 86.6907 303.411 61.3098 313.345 60.704Z" fill="#A0D694"/>
<path d="M623.104 476.794L246.969 478.055C246.778 477.902 246.637 477.763 246.544 477.634C246.521 477.605 246.504 477.57 246.49 477.544C245.947 476.555 243.402 474.633 239.599 471.904C231.849 466.337 218.866 457.402 207.001 446.171C206.332 445.54 205.668 444.902 205.01 444.253C204.422 443.676 203.836 443.09 203.259 442.502C180.064 419.005 164.088 386.686 206.609 354.128C276.624 300.51 114.299 296.673 246.192 148.242C247.208 147.099 458.263 144.445 461.065 147.489C507.429 197.89 496.188 261.524 501.035 291.688C514.737 376.97 664.205 327.2 623.101 476.791L623.104 476.794Z" fill="#6385DB"/>
<path d="M570.34 478.055H184.628C191.308 459.448 213.799 414.291 240.119 398.866C280.753 375.048 375.359 365.211 451.234 376.451C539.511 389.528 568.471 457.261 570.337 478.055H570.34Z" fill="#EF873A"/>
<path d="M355.419 419.689C312.11 420.358 309.791 405.137 307.883 388.835C307.096 382.085 306.582 370.424 306.037 356.435C305.806 350.576 305.569 344.31 305.307 337.828C304.805 325.334 303.841 312.488 302.978 302.477C302.029 291.535 301.195 283.985 301.195 283.985L388.776 263.168L393.984 261.937C396.336 330.483 416.931 361.08 419.17 372.709C423.879 397.172 383.848 419.247 355.416 419.686L355.419 419.689Z" fill="#FFB27D"/>
<path d="M388.698 294.29C379.001 319.535 354.879 352.896 306.04 356.438C305.809 350.579 305.572 344.313 305.31 337.831C304.808 325.337 303.844 312.491 302.981 302.48L388.698 294.29Z" fill="#F4A269"/>
<path d="M282.233 331.969C282.233 331.969 398.664 342.758 404.267 270.161C409.871 197.564 428.674 150.062 354.574 140.104C280.473 130.145 263.874 156.732 256.109 180.509C248.345 204.286 252.093 327.293 282.236 331.969H282.233Z" fill="#FFB27D"/>
<path d="M431.663 254.753C420.148 265.228 415.661 281.101 403.644 275.426C403.644 275.426 403.653 275.371 403.673 275.265C403.679 275.21 403.69 275.135 403.705 275.048C403.716 274.976 403.731 274.895 403.742 274.806C403.751 274.739 403.765 274.673 403.774 274.598C404.126 272.287 405.078 265.421 405.378 257.583V257.563C405.459 255.379 405.491 253.126 405.444 250.876C405.165 237.404 402.098 224.007 390.447 227.139C387.957 227.809 385.55 228.256 383.225 228.504C346.575 232.378 329.916 185.976 313.394 163.396C308.077 156.126 302.771 151.326 296.815 151.47C290.352 151.626 283.762 154.816 277.706 160.217C264.543 171.949 253.914 194.12 252.627 218.318C252.627 218.341 252.624 218.361 252.624 218.381C251.556 237.632 236.452 190.698 256.588 156.542C260.893 149.243 446.474 149.831 450.08 158.549C450.545 159.666 450.992 160.814 451.425 161.977C470.612 213.736 455.557 233.033 431.666 254.753H431.663Z" fill="#6385DB"/>
<path d="M461.275 148.493C461.275 148.966 461.143 149.436 460.871 149.901C460.693 150.218 460.441 150.535 460.136 150.85C460.115 150.867 460.098 150.89 460.075 150.91C458.918 152.064 456.936 153.184 454.229 154.245C453.046 154.71 451.719 155.163 450.259 155.61C450.155 155.641 450.054 155.673 449.948 155.702C449.31 155.895 448.646 156.086 447.957 156.276C447.801 156.319 447.645 156.36 447.486 156.403C446.396 156.689 445.25 156.974 444.05 157.254C442.114 157.701 440.034 158.134 437.815 158.549C437.163 158.671 436.505 158.792 435.83 158.913C435.587 158.953 435.345 158.997 435.097 159.04C433.611 159.299 432.076 159.548 430.489 159.79C428.807 160.047 427.067 160.295 425.272 160.534H425.27C423.994 160.704 422.69 160.875 421.36 161.033C420.771 161.105 420.177 161.177 419.577 161.247C418.899 161.325 418.212 161.402 417.522 161.477C416.772 161.561 416.016 161.642 415.249 161.72C411.856 162.078 408.313 162.409 404.645 162.704C404.397 162.727 404.146 162.744 403.895 162.761C403.884 162.764 403.872 162.764 403.86 162.764C403.364 162.805 402.871 162.842 402.369 162.88C399.775 163.079 397.12 163.263 394.411 163.428C394.356 163.431 394.299 163.433 394.244 163.436C393.514 163.48 392.784 163.523 392.048 163.563C389.494 163.71 386.895 163.843 384.255 163.961C383.802 163.979 383.349 163.999 382.893 164.016C381.903 164.059 380.905 164.097 379.904 164.134C378.308 164.198 376.698 164.25 375.077 164.299C374.598 164.313 374.113 164.328 373.631 164.339C373.155 164.354 372.676 164.368 372.2 164.377C369.612 164.446 366.992 164.501 364.346 164.538C360.852 164.587 357.312 164.616 353.728 164.616C351.538 164.616 349.366 164.608 347.21 164.584C346.549 164.579 345.889 164.573 345.234 164.561C344.391 164.553 343.549 164.538 342.712 164.527C342.25 164.521 341.792 164.515 341.333 164.504C340.6 164.492 339.873 164.478 339.146 164.463C334.244 164.362 329.448 164.218 324.78 164.022C320.596 163.849 316.516 163.632 312.555 163.387C311.568 163.324 310.587 163.263 309.612 163.194C309.115 163.162 308.622 163.128 308.129 163.093C307.321 163.038 306.519 162.978 305.725 162.92C304.505 162.83 303.296 162.732 302.104 162.637C301.348 162.574 300.601 162.513 299.856 162.447C296.922 162.193 294.077 161.919 291.327 161.622C290.897 161.578 290.47 161.532 290.046 161.483C286.469 161.088 283.064 160.661 279.844 160.208C276.48 159.729 273.32 159.222 270.386 158.682C269.399 158.5 268.435 158.316 267.503 158.128C266.635 157.955 265.789 157.776 264.973 157.6C263.389 157.251 261.894 156.896 260.492 156.533C260.198 156.455 259.901 156.377 259.615 156.299C256.998 155.592 254.73 154.854 252.834 154.087C252.803 154.075 252.768 154.058 252.733 154.046C252.569 153.98 252.404 153.913 252.246 153.844C252.228 153.836 252.208 153.827 252.191 153.818C248.296 152.151 246.178 150.356 246.178 148.487C246.178 148.403 246.181 148.323 246.192 148.239C246.265 147.503 246.668 146.782 247.378 146.075C247.814 145.637 248.371 145.207 249.037 144.78C251.106 143.464 254.248 142.21 258.319 141.038C259.898 140.588 261.617 140.144 263.467 139.717C267.457 138.797 272.056 137.94 277.178 137.161C278.491 136.962 279.841 136.766 281.223 136.575C287.92 135.661 295.393 134.871 303.475 134.227C304.268 134.164 305.067 134.103 305.869 134.04C305.982 134.031 306.092 134.025 306.204 134.014C306.845 133.97 307.494 133.924 308.14 133.878C308.807 133.832 309.479 133.786 310.154 133.737C313.29 133.532 316.508 133.344 319.794 133.18C322.2 133.062 324.65 132.952 327.131 132.86H327.134C333.15 132.629 339.368 132.473 345.739 132.404C346.203 132.398 346.671 132.395 347.138 132.392C349.314 132.369 351.512 132.361 353.725 132.361C354.21 132.361 354.695 132.361 355.179 132.364C358.746 132.369 362.272 132.404 365.748 132.465C373.123 132.586 380.267 132.819 387.117 133.154C388.095 133.203 389.067 133.255 390.031 133.304C390.487 133.33 390.934 133.353 391.384 133.379C392.472 133.443 393.548 133.503 394.619 133.572C396.725 133.699 398.794 133.841 400.828 133.991C404.394 134.253 407.848 134.542 411.178 134.859C414.037 135.13 416.798 135.419 419.464 135.73C420.54 135.854 421.602 135.981 422.65 136.114C423.512 136.224 424.364 136.333 425.203 136.443C429.396 137.002 433.291 137.608 436.854 138.257C438.034 138.471 439.177 138.693 440.282 138.918C443.101 139.489 445.672 140.089 447.974 140.718C448.822 140.949 449.63 141.183 450.403 141.419C450.848 141.558 451.281 141.693 451.702 141.835C453.3 142.362 454.711 142.905 455.929 143.459C457.297 144.085 458.413 144.725 459.27 145.383C459.377 145.464 459.478 145.547 459.579 145.628C460.303 146.234 460.805 146.857 461.065 147.486C461.2 147.818 461.27 148.152 461.27 148.49L461.275 148.493Z" fill="#23569E"/>
<path d="M290.049 161.492C286.471 161.097 283.067 160.67 279.847 160.217C276.482 159.738 273.323 159.23 270.389 158.691C269.402 158.509 268.438 158.324 267.506 158.137C266.638 157.964 265.792 157.785 264.976 157.609C264.973 157.609 264.973 157.606 264.973 157.606C261.112 151.597 258.654 146.009 258.325 141.044C257.829 133.526 260.224 126.473 260.224 126.473C270.516 128.804 276.087 133.368 280.594 139.013C289.553 150.232 290.049 161.492 290.049 161.492Z" fill="#1E3D70"/>
<path d="M381.312 231.868C381.312 231.868 388.211 216.114 402.346 219.78C416.481 223.447 413.376 236.394 408.91 244.789C404.443 253.184 398.699 263.362 385.703 261.772C372.708 260.18 381.312 231.868 381.312 231.868Z" fill="#FFB27D"/>
<path d="M469.894 147.572C467.661 147.893 464.911 150.489 461.007 152.361C459.062 153.296 456.973 153.772 454.232 154.245C453.049 154.71 451.722 155.163 450.262 155.61C450.158 155.641 450.057 155.673 449.95 155.702C452.068 152.563 455.19 148.637 459.276 145.386C464.132 141.526 470.335 138.618 477.82 139.108C477.82 139.108 481.744 139.423 482.153 143.9C482.56 148.374 474.946 146.843 469.894 147.57V147.572Z" fill="#82B378"/>
<path d="M284.238 160.805C282.787 153.786 281.255 147.212 279.714 141.133C279.397 139.896 279.082 138.676 278.768 137.478C278.721 137.3 278.675 137.124 278.626 136.948C276.28 128.062 273.955 120.357 271.892 114.036C268.989 105.133 266.618 98.9657 265.461 96.0924C265.201 95.4404 265.002 94.9615 264.875 94.6528C264.808 94.4971 264.762 94.3874 264.736 94.324C264.722 94.2922 264.71 94.272 264.707 94.2605L264.514 94.3442L264.226 94.4682L263.689 94.699L263.545 94.7625L263.435 94.8086C263.444 94.8317 263.473 94.8923 263.519 95.0019C263.568 95.126 263.646 95.3106 263.747 95.5529C263.842 95.7837 263.957 96.0693 264.096 96.4068C265.233 99.2282 267.734 105.687 270.798 115.141C272.789 121.277 275.011 128.671 277.256 137.152C278.338 141.243 279.423 145.585 280.487 150.16C280.522 150.307 280.554 150.449 280.588 150.593C281.336 153.818 282.074 157.162 282.793 160.615L284.235 160.802L284.238 160.805Z" fill="#A8D29F"/>
<path d="M248.723 87.6629C251.398 90.6919 263.926 95.5673 264.791 94.8028C265.657 94.0384 262.373 81.0075 259.699 77.9755C257.024 74.9436 252.399 74.658 249.366 77.3322C246.334 80.0065 246.048 84.6309 248.723 87.6629Z" fill="#F77D48"/>
<path d="M267.922 77.1015C265.507 80.3411 263.311 93.6028 264.237 94.2923C265.163 94.9817 277.244 89.088 279.659 85.8483C282.074 82.6086 281.405 78.0217 278.165 75.6071C274.924 73.1925 270.337 73.8618 267.922 77.1015Z" fill="#F77D48"/>
<path d="M282.331 91.1997C278.43 90.138 265.285 92.945 264.982 94.0585C264.679 95.1721 274.581 104.259 278.482 105.321C282.383 106.383 286.405 104.083 287.47 100.183C288.532 96.2828 286.232 92.2613 282.334 91.1968L282.331 91.1997Z" fill="#F77D48"/>
<path d="M273.45 108.777C273.06 104.756 265.775 93.4585 264.627 93.571C263.478 93.6806 258.49 106.163 258.879 110.185C259.269 114.206 262.846 117.155 266.869 116.765C270.894 116.376 273.839 112.799 273.45 108.777Z" fill="#F77D48"/>
<path d="M253.51 107.914C257.087 106.036 264.797 95.025 264.263 94.0038C263.726 92.9825 250.284 93.0748 246.706 94.9558C243.128 96.8338 241.749 101.259 243.627 104.836C245.506 108.414 249.932 109.793 253.51 107.914Z" fill="#F77D48"/>
<path d="M261.883 93.623C262.093 92.3075 263.328 91.4132 264.641 91.6209C265.957 91.8315 266.851 93.0662 266.644 94.3788C266.433 95.6943 265.198 96.5886 263.885 96.3809C262.569 96.1703 261.675 94.9356 261.883 93.623Z" fill="white"/>
<path d="M285.297 112.366C281.321 117.256 277.028 137.773 278.424 138.906C279.821 140.04 299.034 131.657 303.01 126.767C306.989 121.877 306.247 114.688 301.357 110.71C296.466 106.732 289.276 107.473 285.297 112.363V112.366Z" fill="#A8D29F"/>
<path d="M267.881 135.306C272.01 137.32 281.145 149.569 280.571 150.746C279.997 151.926 264.719 152.272 260.59 150.258C256.461 148.245 254.744 143.265 256.758 139.134C258.772 135.006 263.752 133.29 267.884 135.303L267.881 135.306Z" fill="#A8D29F"/>
<path d="M259.618 156.305C257.001 155.598 254.733 154.86 252.837 154.092C252.806 154.081 252.771 154.063 252.736 154.052C252.575 153.983 252.413 153.916 252.249 153.85C252.231 153.841 252.211 153.833 252.194 153.824C250.321 153.059 248.172 152.373 245.716 151.856C233.269 149.231 218.225 170.435 211.15 163.148C204.075 155.858 215.876 146.228 234.72 144.128C239.576 143.586 243.795 144.468 247.381 146.081C252.999 148.599 257.073 152.904 259.615 156.305H259.618Z" fill="#A8D29F"/>
<path d="M309.615 163.203C309.118 163.171 308.625 163.136 308.131 163.102C307.324 163.047 306.521 162.986 305.728 162.929C304.508 162.839 303.299 162.741 302.107 162.646C301.351 162.582 300.604 162.522 299.859 162.455C296.925 162.202 294.08 161.927 291.33 161.63C291.379 159.043 292.268 143.825 305.875 134.048C309.415 131.504 313.818 129.332 319.292 127.843C319.292 127.843 319.73 129.854 319.8 133.189C319.938 139.781 318.622 151.545 309.615 163.203Z" fill="#1E3D70"/>
<path d="M419.577 161.247C418.899 161.325 418.212 161.402 417.522 161.477C416.772 161.561 416.016 161.642 415.249 161.72C411.856 162.077 408.312 162.409 404.645 162.703C404.397 162.727 404.146 162.744 403.895 162.761C403.883 162.764 403.872 162.764 403.86 162.764C403.364 162.804 402.871 162.842 402.369 162.879C399.723 163.081 397.014 163.269 394.244 163.436C393.514 163.48 392.784 163.523 392.048 163.563C391.658 157.86 392.123 145.758 400.834 133.991C404.235 129.395 408.892 124.849 415.249 120.758C415.249 120.758 417.961 126.164 419.47 135.73C420.52 142.368 420.991 151.011 419.577 161.241V161.247Z" fill="#1E3D70"/>
<path d="M403.889 95.5905C403.881 95.6078 403.855 95.6712 403.811 95.7751C403.762 95.8934 403.687 96.0665 403.592 96.2973C403.5 96.5194 403.387 96.7963 403.255 97.1194C402.161 99.8254 399.76 106.028 396.817 115.106C395.135 120.296 393.277 126.429 391.387 133.385C390.825 135.459 390.253 137.611 389.688 139.83C389.324 141.266 388.955 142.729 388.591 144.223C387.1 150.342 385.631 156.943 384.255 163.964C383.802 163.982 383.349 164.002 382.893 164.019C384.359 156.501 385.934 149.459 387.532 142.971C387.778 141.973 388.029 140.981 388.274 140.011C388.863 137.701 389.448 135.465 390.034 133.307C392.036 125.922 394.007 119.454 395.77 114.042C398.56 105.491 400.84 99.5716 401.945 96.8165C402.196 96.1905 402.389 95.7261 402.507 95.4347C402.574 95.2847 402.617 95.1837 402.646 95.1202C402.654 95.0914 402.663 95.0741 402.669 95.0654L402.848 95.1433L403.139 95.2674L403.653 95.4895L403.788 95.5472L403.889 95.5905Z" fill="#A8D29F"/>
<path d="M418.022 88.7246C415.454 91.6354 403.425 96.3146 402.594 95.5819C401.763 94.8491 404.914 82.3347 407.484 79.4267C410.052 76.5159 414.493 76.239 417.404 78.8094C420.315 81.3769 420.592 85.8167 418.022 88.7275V88.7246Z" fill="#F77D48"/>
<path d="M399.587 78.5843C401.907 81.6971 404.013 94.4279 403.125 95.0885C402.236 95.7492 390.637 90.092 388.317 86.9821C385.997 83.8694 386.641 79.4671 389.754 77.1477C392.867 74.8283 397.27 75.4716 399.587 78.5815V78.5843Z" fill="#F77D48"/>
<path d="M385.752 92.1201C389.497 91.0989 402.118 93.7962 402.409 94.8636C402.701 95.931 393.191 104.658 389.448 105.679C385.703 106.7 381.84 104.49 380.821 100.746C379.8 97.0012 382.01 93.1384 385.755 92.1201H385.752Z" fill="#F77D48"/>
<path d="M394.281 108.999C394.653 105.136 401.65 94.2924 402.753 94.3991C403.855 94.5058 408.644 106.489 408.269 110.352C407.897 114.215 404.461 117.045 400.597 116.67C396.734 116.298 393.906 112.862 394.278 108.999H394.281Z" fill="#F77D48"/>
<path d="M413.425 108.168C409.989 106.365 402.585 95.7924 403.102 94.8116C403.618 93.8307 416.524 93.9202 419.961 95.7232C423.397 97.5262 424.721 101.776 422.915 105.211C421.112 108.647 416.862 109.971 413.425 108.166V108.168Z" fill="#F77D48"/>
<path d="M405.387 94.4481C405.185 93.1846 403.999 92.3249 402.738 92.5268C401.474 92.7288 400.614 93.9144 400.816 95.1751C401.018 96.4358 402.204 97.2984 403.465 97.0964C404.729 96.8945 405.589 95.7088 405.387 94.4481Z" fill="white"/>
<path d="M387.143 120.239C389.235 122.809 391.491 133.595 390.758 134.193C390.025 134.79 379.924 130.382 377.832 127.808C375.74 125.238 376.13 121.459 378.703 119.367C381.274 117.276 385.054 117.665 387.146 120.236L387.143 120.239Z" fill="#A8D29F"/>
<path d="M379.99 131.645C383.026 134.755 387.253 148.574 386.364 149.442C385.475 150.307 371.761 145.746 368.726 142.637C365.691 139.527 365.751 134.545 368.862 131.51C371.972 128.475 376.955 128.535 379.99 131.645Z" fill="#A8D29F"/>
<path d="M399.608 123.441C396.702 124.857 390.274 133.477 390.677 134.308C391.081 135.139 401.832 135.384 404.741 133.965C407.646 132.548 408.855 129.043 407.438 126.135C406.022 123.23 402.516 122.022 399.608 123.438V123.441Z" fill="#A8D29F"/>
<path d="M450.409 141.422C450.253 145.242 449.469 150.175 447.489 156.4C446.399 156.686 445.253 156.971 444.053 157.251C442.117 157.698 440.037 158.131 437.818 158.546C437.166 158.668 436.508 158.789 435.833 158.91C435.59 158.95 435.348 158.994 435.1 159.037C433.614 159.297 432.079 159.545 430.492 159.787C430.025 156.247 429.563 146.459 436.86 138.26C439.52 135.272 443.213 132.493 448.309 130.31C448.309 130.31 450.73 133.448 450.406 141.422H450.409Z" fill="#1E3D70"/>
<path d="M467.99 130.889C464.894 133.128 460.323 137.663 455.932 143.462C453.038 147.281 450.222 151.649 447.957 156.273C446.731 156.605 445.423 156.931 444.05 157.251C444.717 152.344 445.902 146.571 447.98 140.721C452.057 129.262 459.567 117.512 473.379 111.385C473.379 111.385 479.701 108.696 483.96 115.28C488.216 121.869 475.203 125.668 467.99 130.887V130.889Z" fill="#82B378"/>
<path d="M455.245 198.118C455.236 198.251 455.225 198.383 455.216 198.51C455.202 198.701 455.182 198.897 455.164 199.099C454.916 201.739 454.391 205.382 453.797 209.551C453.612 210.843 453.419 212.185 453.225 213.572C453.185 213.849 453.147 214.123 453.107 214.403V214.409C452.582 218.199 452.037 222.307 451.569 226.563C451.526 226.958 451.483 227.353 451.442 227.748C451.157 230.434 450.903 233.169 450.706 235.921C450.686 236.16 450.672 236.4 450.657 236.639C450.383 240.635 450.23 244.645 450.265 248.557C450.265 248.796 450.268 249.036 450.271 249.275C450.311 252.186 450.458 255.039 450.741 257.782C450.79 258.267 450.845 258.755 450.903 259.231C450.903 259.234 450.903 259.236 450.906 259.239C451.131 261.114 451.425 262.935 451.8 264.677C451.933 265.318 452.08 265.949 452.239 266.573L451.76 266.694C451.607 266.094 451.462 265.482 451.333 264.862C451.335 264.859 451.333 264.859 451.333 264.859C450.983 263.241 450.704 261.556 450.479 259.825C450.479 259.822 450.479 259.816 450.476 259.81C450.392 259.15 450.314 258.481 450.245 257.806V257.797C449.982 255.25 449.838 252.61 449.783 249.921C449.783 249.921 449.783 249.919 449.783 249.915C449.777 249.474 449.772 249.03 449.769 248.586C449.734 244.578 449.893 240.468 450.176 236.383C450.181 236.264 450.19 236.149 450.202 236.034C450.429 232.8 450.738 229.583 451.082 226.45C451.084 226.401 451.09 226.355 451.096 226.306C451.575 221.97 452.132 217.796 452.668 213.956C452.694 213.777 452.718 213.604 452.741 213.434C452.934 212.066 453.124 210.748 453.303 209.476C453.944 204.99 454.495 201.118 454.717 198.464L454.726 198.352C454.734 198.225 454.743 198.089 454.752 197.954C454.936 194.46 454.172 189.319 452.42 183.809C452.374 183.659 452.325 183.515 452.276 183.368C450.914 179.208 448.993 174.855 446.491 170.859C446.358 170.646 446.223 170.432 446.087 170.222C444.947 168.462 443.692 166.777 442.322 165.219C440.441 163.076 438.458 161.29 436.381 159.865C436.225 159.755 436.069 159.654 435.913 159.55C435.642 159.372 435.371 159.201 435.097 159.037C433.178 157.874 431.193 157.009 429.127 156.446C429.127 156.446 429.124 156.449 429.121 156.446C427.543 156.017 425.922 155.763 424.26 155.685C423.974 155.673 423.688 155.662 423.408 155.656C423.146 155.65 422.889 155.647 422.632 155.647C422.54 155.647 422.445 155.647 422.352 155.65H422.35C413.823 155.717 408.232 159.025 404.64 162.704C404.391 162.727 404.14 162.744 403.889 162.761C407.594 158.78 413.538 155.099 422.817 155.154C422.82 155.151 422.82 155.154 422.82 155.154C423.296 155.154 423.786 155.166 424.28 155.189C426.493 155.292 428.64 155.702 430.714 156.423C432.474 157.029 434.179 157.86 435.827 158.907C435.962 158.988 436.098 159.077 436.231 159.167C436.237 159.17 436.239 159.173 436.242 159.175C436.254 159.181 436.268 159.19 436.277 159.199C436.277 159.199 436.278 159.2 436.28 159.201C437.013 159.683 437.734 160.217 438.444 160.788L438.453 160.797C439.912 161.977 441.326 163.344 442.688 164.89C444.067 166.46 445.328 168.153 446.474 169.922C446.482 169.933 446.488 169.947 446.5 169.959V169.962C449.238 174.194 451.318 178.856 452.761 183.304C452.844 183.57 452.928 183.829 453.009 184.092C454.711 189.579 455.438 194.665 455.234 198.115L455.245 198.118Z" fill="#A0D694"/>
<path d="M451.174 226.303C451.174 226.303 442.757 227.128 439.168 234.47C439.168 234.47 445.81 235.379 451.174 226.303Z" fill="#A0D694"/>
<path d="M450.323 236.005C450.323 236.005 442.201 238.359 440.019 246.237C440.019 246.237 446.716 245.911 450.323 236.005Z" fill="#A0D694"/>
<path d="M449.985 248.453C449.985 248.453 443.871 252.053 443.736 258.907C443.736 258.907 449.111 257.252 449.985 248.453Z" fill="#A0D694"/>
<path d="M450.213 257.604C450.213 257.604 445.291 262.713 447.002 269.353C447.002 269.353 451.734 266.316 450.213 257.604Z" fill="#A0D694"/>
<path d="M451.46 264.256C451.46 264.256 449.671 271.119 454.411 276.075C454.411 276.075 457.051 271.11 451.46 264.256Z" fill="#A0D694"/>
<path d="M450.268 257.604C450.268 257.604 452.155 264.443 458.736 266.359C458.736 266.359 458.537 260.739 450.268 257.604Z" fill="#A0D694"/>
<path d="M449.985 248.453C449.985 248.453 451.872 255.293 458.454 257.208C458.454 257.208 458.254 251.589 449.985 248.453Z" fill="#A0D694"/>
<path d="M450.516 235.811C450.516 235.811 451.258 242.865 457.441 245.833C457.441 245.833 458.162 240.257 450.516 235.811Z" fill="#A0D694"/>
<path d="M451.174 226.332C451.174 226.332 452.034 234.525 459.212 237.969C459.212 237.969 460.052 231.493 451.174 226.332Z" fill="#A0D694"/>
<path d="M453.119 213.454C453.119 213.454 444.688 212.813 439.884 219.426C439.884 219.426 446.269 221.468 453.119 213.454Z" fill="#A0D694"/>
<path d="M453.113 213.48C453.113 213.48 452.544 221.699 459.022 226.332C459.022 226.332 460.967 220.098 453.113 213.48Z" fill="#A0D694"/>
<path d="M455.011 197.939C455.011 197.939 446.569 198.421 442.685 205.613C442.685 205.613 449.287 206.79 455.011 197.939Z" fill="#A0D694"/>
<path d="M455.008 197.965C455.008 197.965 455.536 206.184 462.568 209.92C462.568 209.92 463.67 203.484 455.008 197.965Z" fill="#A0D694"/>
<path d="M452.536 183.238C452.536 183.238 444.921 186.916 444.088 195.048C444.088 195.048 450.634 193.606 452.536 183.238Z" fill="#A0D694"/>
<path d="M452.544 183.264C452.544 183.264 456.18 190.655 464.109 191.411C464.109 191.411 462.66 185.044 452.544 183.264Z" fill="#A0D694"/>
<path d="M446.453 169.901C446.453 169.901 438.386 176.545 439.765 186.553C439.765 186.553 447.207 182.909 446.453 169.901Z" fill="#A0D694"/>
<path d="M446.474 169.927C446.474 169.927 453.003 177.739 462.741 176.329C462.741 176.329 459.14 169.108 446.474 169.927Z" fill="#A0D694"/>
<path d="M436.248 159.161C436.248 159.161 428.325 167.839 431.45 178.755C431.45 178.755 439.151 173.516 436.248 159.161Z" fill="#A0D694"/>
<path d="M436.271 159.187C436.271 159.187 444.78 166.843 455.395 163.728C455.395 163.728 450.239 156.262 436.271 159.187Z" fill="#A0D694"/>
<path d="M422.453 155.367C422.453 155.367 418.414 166.399 425.445 175.319C425.445 175.319 430.584 167.55 422.453 155.367Z" fill="#A0D694"/>
<path d="M422.485 155.382C422.485 155.382 433.262 159.242 441.903 152.333C441.903 152.333 434.301 147.379 422.485 155.382Z" fill="#A0D694"/>
<path d="M403.86 162.764C403.364 162.805 402.871 162.842 402.369 162.88C400.363 151.923 405.811 147.365 405.811 147.365C407.923 153.931 405.453 159.888 403.86 162.764Z" fill="#A0D694"/>
<path d="M449.627 121.811C449.627 121.811 445.819 131.59 440.288 138.921C437.717 142.334 434.774 145.213 431.666 146.338C421.885 149.872 419.248 150.879 418.87 151.597C418.648 152.021 418.01 157.251 417.522 161.475C416.772 161.558 416.016 161.639 415.249 161.717C416.051 155.434 418.045 144.275 422.655 136.114C423.83 134.028 425.177 132.142 426.721 130.578C437.131 120.045 449.624 121.808 449.624 121.808L449.627 121.811Z" fill="#82B378"/>
<path d="M345.237 164.567C344.394 164.559 343.552 164.544 342.715 164.533C342.253 164.527 341.794 164.521 341.336 164.509C340.603 164.498 339.876 164.484 339.149 164.469C336.361 156.224 338.799 151.894 338.799 151.894C345.231 156.048 345.248 163.84 345.237 164.567Z" fill="#82B378"/>
<path d="M394.414 163.428C394.359 163.431 394.301 163.433 394.247 163.436C393.517 163.48 392.787 163.523 392.051 163.563C389.497 163.71 386.898 163.843 384.258 163.961C383.805 163.979 383.352 163.999 382.896 164.016C381.906 164.059 380.908 164.097 379.907 164.134C380.766 160.375 383.946 153.449 395.591 149.546C395.591 149.546 397.21 155.725 394.414 163.425V163.428Z" fill="#82B378"/>
<path d="M377.523 158.232C377.523 158.232 368.611 155.927 369.635 152.358C370.659 148.793 377.523 158.232 377.523 158.232C377.523 158.232 377.688 157.695 377.523 158.232Z" fill="#A0D694"/>
<path d="M374.788 150.103C377.541 148.398 377.529 158.232 377.529 158.232C377.529 158.232 372.035 151.807 374.788 150.103Z" fill="#A0D694"/>
<path d="M373.634 164.345C373.158 164.359 372.679 164.374 372.203 164.382C369.615 164.452 366.995 164.507 364.349 164.544C360.855 164.593 357.315 164.622 353.731 164.622C351.541 164.622 349.368 164.613 347.213 164.59C346.552 164.584 345.892 164.579 345.237 164.567C344.394 164.558 343.552 164.544 342.715 164.533C342.253 164.527 341.794 164.521 341.336 164.509C340.603 164.498 339.876 164.483 339.149 164.469C334.247 164.368 329.451 164.224 324.783 164.028C325.354 159.77 328.672 146.684 347.831 148.493C364.063 150.027 370.988 159.178 373.637 164.342L373.634 164.345Z" fill="#1E3D70"/>
<path d="M369.292 52.0235C369.283 52.0466 369.254 52.1072 369.211 52.2139C369.159 52.338 369.081 52.5226 368.98 52.7649C368.888 52.9957 368.769 53.2813 368.631 53.6189C367.494 56.4374 364.992 62.8936 361.928 72.3531C358.982 81.4461 355.514 93.3115 352.236 107.375C352.205 107.522 352.17 107.664 352.138 107.808V107.819C350.378 115.407 348.676 123.628 347.144 132.401C345.39 142.443 343.855 153.198 342.712 164.535C342.25 164.53 341.792 164.524 341.333 164.512C342.47 153.192 343.999 142.446 345.744 132.413C348.37 117.336 351.492 103.861 354.559 92.4316C354.767 91.6585 354.975 90.8997 355.182 90.1497C357.153 82.9376 359.089 76.5967 360.838 71.2453C363.74 62.3398 366.115 56.1748 367.269 53.3015C367.531 52.6496 367.731 52.1678 367.858 51.862C367.921 51.7062 367.967 51.5966 367.99 51.5331C368.005 51.5014 368.016 51.4841 368.019 51.4725L368.204 51.5533L368.507 51.6802L369.046 51.9139L369.188 51.9716L369.294 52.0178L369.292 52.0235Z" fill="#A8D29F"/>
<path d="M384.01 44.8749C381.335 47.904 368.807 52.7794 367.941 52.0149C367.076 51.2504 370.359 38.2195 373.034 35.1876C375.708 32.1556 380.334 31.87 383.366 34.5443C386.396 37.2185 386.684 41.8429 384.01 44.8749Z" fill="#F99746"/>
<path d="M364.811 34.3106C367.226 37.5502 369.421 50.8119 368.495 51.5014C367.569 52.1908 355.488 46.2971 353.073 43.0574C350.658 39.8177 351.328 35.2308 354.568 32.8162C357.808 30.4016 362.396 31.0709 364.811 34.3106Z" fill="#F99746"/>
<path d="M350.401 48.4088C354.302 47.3471 367.448 50.1541 367.751 51.2676C368.054 52.3812 358.151 61.4685 354.25 62.5301C350.349 63.5917 346.327 61.2925 345.265 57.3922C344.204 53.4919 346.503 49.4704 350.404 48.4088H350.401Z" fill="#F99746"/>
<path d="M359.282 65.9891C359.672 61.9676 366.957 50.6706 368.106 50.7831C369.254 50.8927 374.243 63.3754 373.853 67.3969C373.464 71.4213 369.886 74.3667 365.864 73.9772C361.842 73.5878 358.893 70.0106 359.282 65.9891Z" fill="#F99746"/>
<path d="M379.223 65.1236C375.645 63.2456 367.935 52.2341 368.469 51.2129C369.006 50.1916 382.449 50.2839 386.026 52.1649C389.604 54.0429 390.983 58.4683 389.105 62.0455C387.227 65.6227 382.801 67.0016 379.223 65.1236Z" fill="#F99746"/>
<path d="M370.85 50.835C370.639 49.5195 369.404 48.6252 368.091 48.8329C366.775 49.0435 365.881 50.2782 366.089 51.5908C366.299 52.9063 367.534 53.8006 368.847 53.5929C370.163 53.3823 371.057 52.1476 370.85 50.835Z" fill="#2A4E96"/>
<path d="M345.436 71.4212C349.51 74.8167 356.365 91.0613 355.396 92.2239C354.426 93.3865 337.21 89.5669 333.136 86.1715C329.062 82.776 328.513 76.7236 331.909 72.6502C335.305 68.5768 341.359 68.0287 345.433 71.4241L345.436 71.4212Z" fill="#A8D29F"/>
<path d="M364.851 92.5152C360.722 94.5288 351.587 106.778 352.164 107.955C352.738 109.135 368.016 109.481 372.145 107.467C376.274 105.454 377.991 100.474 375.977 96.3434C373.963 92.2152 368.983 90.4987 364.851 92.5123V92.5152Z" fill="#A8D29F"/>
<path d="M364.378 142.155C364.378 142.155 358.968 145.709 344.948 144.993C330.934 144.284 327.108 136.754 326.087 137.776C325.844 138.018 325.29 139.876 324.584 142.553C323.718 145.859 322.63 150.411 321.617 154.747C321.087 157.012 320.582 159.219 320.143 161.154C319.456 160.984 318.778 160.75 318.115 160.459C318.343 159.265 318.602 157.984 318.879 156.648C319.973 151.331 321.369 145.187 322.792 140.571C323.865 137.092 324.956 134.475 325.951 133.722C329.846 130.762 339.071 125.206 348.136 128.371C357.208 131.53 364.372 142.155 364.372 142.155H364.378Z" fill="#A8D29F"/>
<path d="M329.76 116.748C319.592 126.654 309.196 127.367 308.856 129.17C308.587 130.587 308.362 132.049 308.186 133.535C308.172 133.65 308.157 133.766 308.146 133.884C307.658 137.928 307.453 142.175 307.427 146.26C307.381 152.69 307.756 158.746 308.134 163.102C307.326 163.047 306.524 162.986 305.731 162.929C305.572 157.635 305.46 150.085 305.748 142.238C305.843 139.504 305.996 136.74 306.21 134.022C306.219 133.875 306.227 133.734 306.242 133.59C307.133 122.518 309.075 112.302 313.062 108.561C323.291 98.9657 342.995 95.0135 343.693 94.875C344.388 94.7336 339.925 106.85 329.76 116.751V116.748Z" fill="#A8D29F"/>
<path d="M334.61 157.814C334.61 157.814 334.535 157.866 334.388 157.961C333.335 158.645 328.562 161.515 322.965 161.524C322.021 161.524 321.078 161.397 320.143 161.154C319.459 160.987 318.778 160.753 318.115 160.459C317.186 160.067 316.294 159.565 315.437 158.994C312.11 156.738 309.459 153.279 308.55 149.814C308.247 148.669 307.857 147.463 307.422 146.263C306.911 144.867 306.328 143.488 305.742 142.241C304.259 139.074 302.745 136.749 302.199 137.158C301.253 137.868 300.361 141.128 300.281 146.127C300.231 148.98 301.233 156.608 302.101 162.646C301.345 162.582 300.598 162.522 299.854 162.455C298.57 152.468 297.516 137.259 302.517 134.663C302.825 134.501 303.146 134.357 303.475 134.236C304.337 133.901 305.261 133.691 306.233 133.593C306.859 133.529 307.514 133.512 308.181 133.541C308.83 133.569 309.488 133.636 310.154 133.748C314.479 134.467 319.13 136.925 322.792 140.574C323.424 141.203 324.021 141.863 324.584 142.556C326.006 144.307 327.203 146.263 328.057 148.386C328.057 148.386 328.283 148.859 328.669 149.598C329.74 151.649 332.059 155.771 334.281 157.569C334.388 157.655 334.5 157.739 334.607 157.817L334.61 157.814Z" fill="#82B378"/>
<path d="M375.079 164.305C374.124 164.334 373.164 164.36 372.203 164.383C371.513 163.583 369.99 161.988 368.383 161.429C367.009 160.95 365.575 161.501 364.349 164.544C363.631 166.327 362.981 168.975 362.465 172.772C361.063 183.045 349.074 181.957 349.074 181.957C346.296 175.293 345.874 169.313 347.213 164.59C348.878 158.72 353.266 154.79 359.248 153.911C369.095 152.468 374.248 162.522 375.079 164.305Z" fill="#A8D29F"/>
<path d="M288.976 140.663C289.331 139.077 290.903 138.076 292.493 138.43C294.08 138.785 295.081 140.358 294.726 141.947C294.371 143.534 290.369 147.956 290.369 147.956C290.369 147.956 288.624 142.253 288.976 140.663Z" fill="#A8D29F"/>
<path d="M435.302 436.227C438.176 437.393 448.45 436.45 448.782 435.63C449.114 434.811 442.397 426.984 439.52 425.819C436.646 424.653 433.369 426.041 432.206 428.914C431.04 431.788 432.428 435.065 435.302 436.23V436.227Z" fill="#A8D29F"/>
<path d="M461.218 441.129C459.605 443.777 458.875 454.067 459.631 454.526C460.387 454.985 469.198 449.622 470.811 446.974C472.424 444.325 471.588 440.869 468.936 439.254C466.287 437.641 462.831 438.478 461.218 441.129Z" fill="#A8D29F"/>
<path d="M447.371 461.265C450.326 462.208 460.499 460.486 460.768 459.644C461.036 458.801 453.742 451.509 450.787 450.565C447.833 449.622 444.67 451.252 443.727 454.209C442.783 457.163 444.416 460.325 447.371 461.265Z" fill="#A8D29F"/>
<path d="M462.334 471.221C462.326 470.987 461.189 447.7 448.436 435.676L448.707 435.388C461.575 447.522 462.718 470.967 462.73 471.2L462.334 471.218V471.221Z" fill="#A8D29F"/>
<path d="M504.898 436.73C503.107 437.918 496.003 438.7 495.663 438.189C495.322 437.679 498.802 431.433 500.594 430.244C502.385 429.056 504.8 429.543 505.989 431.335C507.178 433.126 506.69 435.541 504.898 436.73Z" fill="#A8D29F"/>
<path d="M487.982 443.644C489.445 445.22 491.363 452.106 490.913 452.521C490.463 452.939 483.74 450.513 482.278 448.938C480.815 447.363 480.907 444.899 482.482 443.44C484.058 441.977 486.522 442.069 487.982 443.644Z" fill="#A8D29F"/>
<path d="M500.169 455.397C498.294 456.447 491.15 456.684 490.85 456.15C490.55 455.614 494.494 449.654 496.369 448.604C498.245 447.553 500.617 448.226 501.667 450.101C502.717 451.976 502.045 454.347 500.169 455.397Z" fill="#A8D29F"/>
<path d="M491.389 464.228C491.363 464.069 488.911 448.102 495.905 438.172L495.68 438.013C488.622 448.032 491.089 464.107 491.115 464.268L491.387 464.225L491.389 464.228Z" fill="#A8D29F"/>
<path d="M478.763 469.865L477.953 469.735C474.756 428.398 462.132 398.733 461.953 398.329L462.692 398.012C462.868 398.419 475.587 428.28 478.763 469.865Z" fill="#A8D29F"/>
<path d="M453.39 394.169C454.948 395.932 462.236 398.771 462.741 398.326C463.246 397.882 461.333 390.298 459.778 388.532C458.22 386.77 455.528 386.602 453.765 388.157C452.002 389.715 451.835 392.407 453.39 394.169Z" fill="white"/>
<path d="M464.562 388.022C463.157 389.908 461.878 397.625 462.418 398.026C462.958 398.427 469.989 394.997 471.394 393.114C472.799 391.227 472.41 388.558 470.523 387.153C468.636 385.749 465.967 386.138 464.562 388.025V388.022Z" fill="white"/>
<path d="M472.949 396.226C470.679 395.609 463.03 397.242 462.854 397.891C462.678 398.54 468.44 403.828 470.71 404.445C472.981 405.063 475.321 403.724 475.941 401.457C476.559 399.186 475.22 396.847 472.952 396.226H472.949Z" fill="white"/>
<path d="M467.779 406.459C467.554 404.116 463.312 397.545 462.643 397.608C461.974 397.672 459.071 404.936 459.299 407.278C459.527 409.621 461.607 411.334 463.95 411.109C466.293 410.881 468.007 408.801 467.779 406.459Z" fill="white"/>
<path d="M456.174 405.954C458.257 404.861 462.744 398.453 462.432 397.859C462.121 397.265 454.296 397.32 452.213 398.413C450.129 399.506 449.327 402.08 450.421 404.162C451.514 406.245 454.088 407.047 456.171 405.954H456.174Z" fill="white"/>
<path d="M461.047 397.64C461.169 396.875 461.887 396.353 462.655 396.474C463.419 396.596 463.941 397.314 463.82 398.081C463.699 398.846 462.981 399.368 462.213 399.247C461.449 399.126 460.926 398.407 461.047 397.64Z" fill="#F77D48"/>
<path d="M478.532 427.599C476.218 430.446 473.72 442.387 474.531 443.047C475.344 443.708 486.525 438.827 488.839 435.982C491.153 433.135 490.723 428.952 487.875 426.638C485.027 424.325 480.844 424.754 478.53 427.602L478.532 427.599Z" fill="#A8D29F"/>
<path d="M413.466 435.48C413.63 435.726 421.031 448.237 427.982 468.353C427.696 468.272 427.451 468.229 427.165 468.148C420.295 448.358 413.056 436.092 412.894 435.85L413.466 435.483V435.48Z" fill="#A8D29F"/>
<path d="M404.942 433.196C406.501 434.551 413.174 436.181 413.561 435.737C413.948 435.293 411.411 428.909 409.853 427.553C408.295 426.197 405.932 426.361 404.576 427.919C403.22 429.477 403.384 431.84 404.942 433.196Z" fill="white"/>
<path d="M413.959 426.558C412.952 428.361 412.73 435.226 413.244 435.512C413.757 435.801 419.484 432.004 420.491 430.201C421.498 428.398 420.852 426.119 419.049 425.112C417.245 424.105 414.966 424.752 413.959 426.555V426.558Z" fill="white"/>
<path d="M422.205 432.734C420.16 432.457 413.685 434.759 413.607 435.345C413.529 435.93 419.156 439.871 421.201 440.148C423.247 440.425 425.131 438.991 425.411 436.943C425.688 434.895 424.254 433.011 422.205 432.734Z" fill="white"/>
<path d="M418.884 442.237C418.417 440.226 413.968 434.99 413.394 435.123C412.819 435.255 411.129 441.914 411.596 443.924C412.063 445.935 414.072 447.19 416.086 446.723C418.1 446.255 419.352 444.247 418.884 442.234V442.237Z" fill="white"/>
<path d="M408.722 443.134C410.41 441.942 413.578 435.847 413.238 435.365C412.897 434.883 406.094 435.832 404.406 437.024C402.718 438.215 402.317 440.549 403.508 442.237C404.7 443.924 407.034 444.325 408.722 443.134Z" fill="white"/>
<path d="M412.009 435.333C412.026 434.652 412.591 434.116 413.272 434.136C413.953 434.156 414.49 434.719 414.473 435.4C414.455 436.08 413.89 436.617 413.209 436.6C412.528 436.582 411.991 436.017 412.011 435.336L412.009 435.333Z" fill="#F77D48"/>
<path d="M425.858 448.961C424.56 451.073 423.945 459.295 424.548 459.667C425.151 460.039 432.212 455.778 433.51 453.663C434.808 451.552 434.151 448.785 432.036 447.487C429.924 446.189 427.157 446.85 425.858 448.961Z" fill="#A8D29F"/>
<path d="M523.194 470.502L524.08 470.361C527.574 425.181 541.372 392.759 541.565 392.317L540.757 391.968C540.564 392.415 526.665 425.049 523.194 470.499V470.502Z" fill="#A8D29F"/>
<path d="M550.928 387.774C549.226 389.701 541.259 392.802 540.708 392.317C540.157 391.833 542.246 383.541 543.945 381.614C545.648 379.687 548.588 379.503 550.518 381.205C552.446 382.907 552.63 385.847 550.928 387.776V387.774Z" fill="white"/>
<path d="M538.717 381.052C540.255 383.115 541.649 391.547 541.06 391.986C540.471 392.424 532.788 388.677 531.25 386.614C529.712 384.551 530.139 381.635 532.202 380.1C534.265 378.565 537.179 378.989 538.717 381.052Z" fill="white"/>
<path d="M529.551 390.021C532.032 389.346 540.394 391.132 540.587 391.838C540.78 392.545 534.482 398.326 532 399.004C529.519 399.679 526.96 398.217 526.284 395.736C525.609 393.255 527.072 390.696 529.553 390.021H529.551Z" fill="white"/>
<path d="M535.2 401.203C535.448 398.644 540.082 391.46 540.812 391.53C541.542 391.602 544.716 399.538 544.468 402.097C544.22 404.656 541.946 406.531 539.387 406.283C536.827 406.035 534.952 403.761 535.2 401.203Z" fill="white"/>
<path d="M547.884 400.652C545.607 399.457 540.702 392.453 541.046 391.804C541.386 391.155 549.938 391.212 552.215 392.41C554.491 393.604 555.368 396.419 554.174 398.696C552.979 400.972 550.163 401.849 547.887 400.654L547.884 400.652Z" fill="white"/>
<path d="M542.558 391.564C542.425 390.728 541.637 390.159 540.803 390.292C539.967 390.425 539.398 391.212 539.531 392.046C539.664 392.883 540.451 393.451 541.285 393.318C542.122 393.186 542.69 392.398 542.558 391.564Z" fill="#F77D48"/>
<path d="M521.137 436.409C523.667 439.519 526.397 452.57 525.508 453.291C524.62 454.013 512.4 448.678 509.87 445.569C507.339 442.459 507.81 437.886 510.923 435.356C514.033 432.826 518.607 433.296 521.137 436.409Z" fill="#A8D29F"/>
<path d="M535.875 439.366C532.309 441.201 524.571 452.06 525.096 453.078C525.618 454.096 538.954 454.114 542.52 452.279C546.086 450.444 547.489 446.068 545.654 442.502C543.819 438.936 539.441 437.534 535.875 439.369V439.366Z" fill="#A8D29F"/>
<path d="M403.618 476.939C403.618 476.939 407.701 466.204 422.531 465.529C437.362 464.854 447.573 473.618 459.824 469.573C472.078 465.529 492.356 456.398 511.54 462.48C530.725 468.561 533.959 476.939 533.959 476.939H403.618Z" fill="#A8D29F"/>
<path d="M582.184 313.445C569.746 310.281 556.072 290.987 556.072 290.987L559.575 287.949C563.202 292.225 578.278 299.584 578.278 299.584C578.197 295.672 578.298 292.103 578.546 288.858C580.22 266.789 588.541 259.435 590.812 257.823C591.178 257.56 591.389 257.451 591.389 257.451C591.389 257.451 591.397 257.612 591.412 257.915C591.443 258.57 591.504 259.891 591.568 261.706C592.029 275.213 592.58 316.091 582.187 313.445H582.184Z" fill="#FFB27D"/>
<path d="M592.156 283.322C592.127 284.531 592.087 285.745 592.035 286.96C591.634 296.78 590.566 306.539 588.157 312.251C587.563 313.653 586.893 314.813 586.126 315.667C585.015 316.913 583.708 317.516 582.179 317.291C573.777 316.065 571.587 308.221 571.142 302.394C570.865 298.764 571.266 295.914 571.266 295.914C571.266 295.914 575.401 295.897 576.071 295.28C577.447 294.01 578.05 287.906 578.416 281.141C578.901 272.273 579.028 262.306 579.876 260.589C582.3 255.685 591.651 255.685 591.651 255.685C591.651 255.685 592.523 269.045 592.156 283.325V283.322Z" fill="#F99746"/>
<path d="M602.064 233.227C602.064 233.227 595.137 237.306 599.387 245.213C599.387 245.213 593.322 244.102 592.012 242.294C592.012 242.294 592.165 243.047 592.39 243.427C592.39 243.427 586.815 242.164 584.989 239.839C583.166 237.513 592.11 209.646 606.606 216.864C606.606 216.864 619.858 219.322 614.667 234.034C609.477 248.747 614.382 250.045 614.382 250.045C614.382 250.045 612.838 250.357 612.18 250.181C612.18 250.181 611.315 249.558 611.266 248.978C611.266 248.978 611.234 249.863 611.41 250.195C611.41 250.195 605.983 249.295 603.868 246.598C601.753 243.9 600.486 236.134 602.061 233.232L602.064 233.227Z" fill="#233862"/>
<path d="M592.061 256.911C592.061 256.911 592.046 256.917 592.038 256.92C591.995 256.914 592.003 256.911 592.061 256.911Z" fill="#FFB27D"/>
<path d="M608.897 252.065C609.102 253.888 609.344 255.524 609.451 256.305C609.693 258.054 593.117 256.914 592.058 256.911C592.794 256.591 595.044 249.46 595.757 246.739C596.62 243.439 597.298 239.876 597.298 239.876L609.003 240.615L609.699 240.658C609.266 242.253 608.96 243.759 608.747 245.158C608.718 245.346 608.692 245.536 608.666 245.721C608.452 247.273 608.64 249.812 608.894 252.065H608.897Z" fill="#FFB27D"/>
<path d="M595.685 238.693C595.685 238.693 593.786 232.675 594.17 228.06C594.444 224.765 599.136 213.526 610.412 218.309C610.412 218.309 613.727 219.546 616.355 222.553C618.444 224.944 621.136 229.626 614.336 238.719L612.359 241.875L595.685 238.693Z" fill="#233862"/>
<path d="M593.553 284.268L592.932 304.136C592.932 304.136 590.737 307.901 588.16 312.254C587.499 313.373 586.81 314.527 586.129 315.67C585.018 316.916 583.711 317.519 582.182 317.294C573.78 316.068 571.59 308.224 571.145 302.397C570.868 298.767 571.269 295.917 571.269 295.917C571.269 295.917 575.404 295.9 576.073 295.282C577.45 294.013 578.053 287.909 578.419 281.144L584.155 277.904L592.159 283.328L593.555 284.274L593.553 284.268Z" fill="#ED7D2B"/>
<path d="M608.897 252.065C600.708 249.667 597.234 240.208 597.234 240.208C600.697 240.309 605.209 242.712 608.75 245.155C608.721 245.343 608.695 245.533 608.669 245.718C608.455 247.27 608.643 249.809 608.897 252.062V252.065Z" fill="#ED975D"/>
<path d="M609.477 248.741C609.477 248.741 594.684 245.086 597.102 235.909C599.519 226.733 599.24 220.08 608.787 222.027C618.335 223.975 619.241 227.956 619.177 231.216C619.117 234.476 613.386 249.457 609.477 248.741Z" fill="#FFB27D"/>
<path d="M620.092 225.997C615.689 219.03 610.438 218.309 610.414 218.309C606.655 215.79 601.681 221.973 601.681 221.973C598.954 228.293 593.206 230.809 593.206 230.809C593.206 230.809 595.451 233.177 602.061 233.224C604.081 233.238 606.124 232.341 607.991 231.092C604.375 234.626 600.163 236.749 600.163 236.749C608.095 235.353 613.646 226.614 614.63 224.964C615.697 226.681 616.759 228.677 616.814 229.915C616.929 232.445 615.986 237.34 617.431 237.548C617.431 237.548 623.055 230.685 620.089 225.994L620.092 225.997Z" fill="#233862"/>
<path d="M607.168 242.859C607.168 242.859 607.353 244.255 608.245 244.587C609.136 244.916 611.502 245.516 611.742 245.369C611.981 245.222 612.867 244.131 612.867 244.131C612.867 244.131 609.139 242.7 607.168 242.862V242.859Z" fill="white"/>
<path d="M601.643 383.23C601.455 384.015 601.268 384.791 601.083 385.561C599.967 390.194 598.931 394.492 598.276 398.087C597.425 402.766 597.226 406.248 598.339 407.711C602.933 413.734 598.339 461.53 598.339 461.53L593.111 466.916C593.111 466.916 584.022 419.726 581.555 412.332C580.433 408.971 578.8 394.613 577.36 379.958C577.285 379.226 577.216 378.493 577.144 377.757C576.893 375.193 576.653 372.64 576.423 370.147C575.127 356.28 574.16 344.406 574.16 344.406C574.16 344.406 583.803 337.626 592.563 336.873C597.725 336.423 602.578 338.065 604.976 344.406C608.467 353.628 604.929 369.559 601.646 383.224L601.643 383.23Z" fill="#FFB27D"/>
<path d="M600.174 386.403C593.426 379.047 588.982 368.511 580.745 353.761C580.046 346.261 585.961 339.129 592.566 336.879C597.728 336.429 602.581 338.07 604.978 344.411C608.47 353.634 603.461 372.738 600.177 386.403H600.174Z" fill="#ED975D"/>
<path d="M627.77 292.086L662.976 301.179V305.29C662.976 305.29 627.94 304.88 625.681 300.977C623.421 297.074 627.77 292.086 627.77 292.086Z" fill="#FFB27D"/>
<path d="M662.976 427.567L661.332 434.361C661.332 434.361 613.704 409.765 607.546 405.042C605.071 403.144 601.802 392.839 598.775 381.182C594.265 363.806 590.289 343.425 590.289 343.425C590.289 343.425 596.966 317.753 614.838 333.463C625.533 342.865 623.869 360.985 622.697 375.077C621.918 384.534 621.358 392.176 624.904 394.158C631.823 398.018 652.122 415.803 658.547 428.035L662.979 427.567H662.976Z" fill="#FFB27D"/>
<path d="M645.047 292.086C647.323 295.32 646.071 301.592 641.293 306.64C638.327 309.776 634.308 311.631 627.77 310.667C624.919 310.246 619.893 307.061 617.27 301.791C616.878 301.003 615.882 298.692 615.882 298.692C615.882 298.692 612.255 302.321 612.12 303.008C612.059 303.317 611.745 306.06 611.698 306.435C611.641 306.888 611.964 308.556 611.964 308.556C611.964 308.556 594.64 316.131 580.321 307.506C580.321 307.506 576.93 285.512 579.169 266.697C579.599 263.09 588.801 258.172 591.648 255.682C592.286 255.123 592.938 253.435 592.762 252.347C592.618 251.43 593.674 249.881 594.56 250.163C596.271 250.712 601.115 253.109 604.523 252.194C606.219 251.744 608.372 249.783 610.019 250.23C612.03 250.778 609.907 255.619 611.046 255.682C612.616 255.76 619.673 255.87 621.814 258.824C623.569 261.244 624.501 265.756 627.556 274.298C627.556 274.298 627.556 274.304 627.562 274.321C633.298 290.347 641.709 287.338 645.053 292.086H645.047Z" fill="#F99746"/>
<path d="M615.882 298.692C615.882 298.692 614.139 294.622 612.867 287.819C612.509 285.901 597.742 300.648 601.441 306.64C605.14 312.632 615.882 298.692 615.882 298.692Z" fill="#ED7D2B"/>
<path d="M637.164 360.145C637.164 360.145 632.525 361.475 625.557 362.944C611.156 365.981 586.804 369.622 572.856 363.402C572.856 363.402 573.748 342.894 576.171 327.388C578.11 314.986 579.908 306.842 579.908 306.842C579.908 306.842 592.875 310.09 606.04 307.572C606.167 307.549 606.288 307.526 606.415 307.5C608.138 307.157 609.866 306.709 611.563 306.144C611.563 306.144 621.503 320.389 626.63 330.302C630.176 337.159 637.164 360.148 637.164 360.148V360.145Z" fill="#23569E"/>
<path d="M637.164 360.145C637.164 360.145 632.525 361.475 625.557 362.944C624.059 363.105 622.501 363.255 620.888 363.402C597.517 333.567 606.135 307.644 606.135 307.644C606.231 307.595 606.323 307.546 606.415 307.497C608.138 307.154 609.866 306.706 611.563 306.141C611.563 306.141 621.503 320.386 626.63 330.299C630.176 337.156 637.164 360.145 637.164 360.145Z" fill="#163560"/>
<path d="M662.979 301.179C662.979 301.179 669.439 297.997 672.007 297.691C674.575 297.383 678.889 297.282 678.889 297.691C678.889 298.101 674.267 300.974 673.034 301.179C671.802 301.387 669.439 303.132 670.158 303.337C670.876 303.542 674.676 302.671 674.728 303.337C674.78 304.003 672.417 304.416 672.007 304.929C671.598 305.443 670.158 306.06 667.847 305.752C665.535 305.443 662.979 305.29 662.979 305.29V301.179Z" fill="#FFB27D"/>
<path d="M673.13 430.781C673 430.541 672.783 430.354 672.527 430.259C672.434 430.224 672.359 430.198 672.348 430.195C672.134 430.143 671.156 429.82 670.507 428.262C670.08 427.235 669.95 426.396 669.558 425.38L667.95 422.605C666.268 420.39 665.677 420.909 665.677 420.909C665.677 420.909 665.238 421.474 664.586 422.216C663.513 423.442 661.868 425.152 660.703 425.594C659.874 425.905 659.358 426.419 659.041 426.895C658.634 427.495 658.544 428.034 658.544 428.034C658.544 428.034 661.998 428.637 661.698 430.337C661.112 433.631 661.251 434.228 661.311 434.338L661.332 434.361C661.332 434.361 667.22 437.442 669.105 438.048C672.457 439.121 674.206 441.4 675.294 442.438C675.732 442.86 676.344 443.053 676.941 442.958C677.455 442.877 678.058 442.747 678.522 442.545C678.958 442.355 679.134 441.827 678.906 441.409L673.13 430.778V430.781Z" fill="#2B478B"/>
<path d="M603.596 469.317L600.775 470.843C599.75 471.206 598.902 471.31 597.866 471.708C596.291 472.311 595.18 473.5 595.128 473.713C594.332 476.947 593.169 476.849 593.169 476.849H581.87C581.336 476.581 582.242 474.293 582.675 473.866C583.745 472.81 586.954 473.341 588.122 470.023C588.783 468.16 592.035 462.361 592.035 462.361L592.058 462.341C592.168 462.283 592.771 462.162 596.046 462.846C597.739 463.195 598.44 459.762 598.44 459.762C598.44 459.762 598.98 459.869 599.566 460.29C600.033 460.622 600.532 461.155 600.818 461.989C601.225 463.166 602.887 464.859 604.081 465.967C604.805 466.639 605.356 467.095 605.356 467.095C605.356 467.095 605.859 467.701 603.596 469.317Z" fill="#2B478B"/>
<path d="M559.578 287.949C559.578 287.949 560.1 284.372 559.177 282.015C558.202 279.528 557.985 276.825 557.206 277.898C556.424 278.971 557.082 282.001 556.401 281.903C556.101 281.859 555.178 281.337 554.814 279.88C554.353 278.031 555.475 275.602 553.937 275.839C552.469 276.066 550.498 282.892 551.473 284.744C552.448 286.596 556.078 290.984 556.078 290.984L559.581 287.946L559.578 287.949Z" fill="#FFB27D"/>
<path d="M593.677 310.667C584.072 310.667 580.113 307.361 579.821 307.136L579.201 302.613C579.293 302.682 592.182 310.419 612.125 303.008L611.704 306.435C604.035 309.285 598.668 310.667 593.68 310.667H593.677Z" fill="#EA7147"/>
<path d="M111.725 477.873C111.792 477.89 111.867 477.899 111.939 477.899C112.597 477.902 113.252 477.282 113.459 476.408L120.75 445.635L121.397 442.903L132.326 396.768L132.973 394.037L142.125 355.391L142.771 352.659L151.903 314.112L152.55 311.38L164.258 261.939L164.904 259.21L174.567 218.43L175.214 215.701L180.012 195.444C180.24 194.477 179.836 193.56 179.109 193.404C178.385 193.243 177.606 193.903 177.375 194.872L172.441 215.701L171.795 218.43L162.137 259.21L161.491 261.939L149.78 311.38L149.133 314.112L140.004 352.659L139.355 355.391L130.203 394.037L129.556 396.768L118.627 442.903L117.981 445.635L110.828 475.833C110.594 476.803 110.998 477.717 111.731 477.873H111.725Z" fill="#2B478B"/>
<path d="M46.3786 477.873C46.4507 477.89 46.5199 477.899 46.5921 477.899C47.2557 477.902 47.9078 477.285 48.1126 476.405L55.3288 445.906L55.978 443.171L66.9018 396.988L67.551 394.253L76.7032 355.564L77.3495 352.829L86.4816 314.242L87.1279 311.507L98.8394 262.014L99.4857 259.282L109.149 218.456L109.795 215.724L114.662 195.144C114.89 194.171 114.486 193.26 113.759 193.101C113.035 192.934 112.256 193.6 112.025 194.57L107.019 215.724L106.373 218.456L96.71 259.282L96.0637 262.014L84.3551 311.507L83.7059 314.242L74.5768 352.829L73.9304 355.564L64.7725 394.253L64.1261 396.988L53.1966 443.171L52.5503 445.906L45.4697 475.831C45.2417 476.803 45.6457 477.714 46.3757 477.873H46.3786Z" fill="#2B478B"/>
<path d="M110.13 206.014H176.558L177.187 203.273H110.759L110.13 206.014Z" fill="#2B478B"/>
<path d="M98.3546 255.307H164.275L164.902 252.564H98.9779L98.3546 255.307Z" fill="#2B478B"/>
<path d="M83.7059 314.712H151.26L151.9 311.966H84.3522L83.7059 314.712Z" fill="#2B478B"/>
<path d="M73.9333 356.199H141.481L142.122 353.453H74.5739L73.9333 356.199Z" fill="#2B478B"/>
<path d="M64.129 397.784H131.683L132.323 395.038H64.7696L64.129 397.784Z" fill="#2B478B"/>
<path d="M52.556 446.898H120.11L120.748 444.152H53.1937L52.556 446.898Z" fill="#2B478B"/>
<path d="M211.113 106.567C211.113 106.567 208.271 108.125 207.298 106.567C206.326 105.01 209.206 105.517 209.206 105.517L211.113 106.567Z" fill="#EF9E67"/>
<path d="M190.517 140.995L193.4 141.702L207.226 145.092C212.708 146.436 218.288 143.052 219.63 137.574L220.441 134.271C221.185 133.61 221.944 132.903 222.726 132.144C235.419 119.783 252.292 127.439 252.292 127.439C252.393 127.03 252.396 126.657 252.335 126.334C252.165 125.359 251.467 124.808 251.467 124.808C240.889 119.59 227.112 120.836 221.104 121.733C219.203 122.019 218.081 122.267 218.081 122.267L217.697 122.172C218.9 113.578 214.673 105.644 207.633 103.919C206.13 103.55 204.606 103.492 203.12 103.709C200.301 104.118 197.589 105.509 195.31 107.641C193.146 109.657 191.371 112.337 190.26 115.473C188.685 115.283 187.173 116.298 186.787 117.873L183.823 129.949C182.626 134.83 185.641 139.804 190.523 140.998L190.517 140.995ZM205.755 113.742L204.976 113.549C204.635 113.468 204.292 113.454 203.963 113.503C202.93 113.658 202.035 114.42 201.773 115.493L196.138 114.111C194.609 113.736 193.056 114.57 192.485 115.989L191.654 115.787C192.785 112.683 194.606 110.07 196.807 108.194C199.124 106.218 201.857 105.059 204.638 105.01C205.518 104.989 206.41 105.085 207.29 105.301C213.577 106.841 217.342 114.007 216.306 121.828L215.703 121.681C215.856 120.152 214.861 118.698 213.331 118.323L207.699 116.941C208.048 115.525 207.174 114.088 205.757 113.739L205.755 113.742Z" fill="#C94C43"/>
<path d="M220.441 134.268C221.185 133.607 221.944 132.9 222.726 132.142C235.419 119.78 252.292 127.436 252.292 127.436C252.393 127.027 252.396 126.655 252.335 126.332C249.969 125.235 241.195 121.727 231.437 124.834C220.002 128.478 218.127 130.425 220.444 134.265L220.441 134.268Z" fill="#B23B38"/>
<path d="M190.517 140.995L193.4 141.702C188.997 140.089 192.632 129.949 194.652 123.311C196.672 116.673 201.557 118.837 201.557 118.837C202.266 116.607 204.474 116.39 204.474 116.39C204.289 114.371 205.755 113.742 205.755 113.742L204.976 113.549C204.635 113.468 204.292 113.454 203.963 113.503C202.93 113.658 202.036 114.42 201.773 115.493L196.138 114.111C194.609 113.736 193.056 114.57 192.485 115.989L191.654 115.787C192.785 112.683 194.606 110.07 196.807 108.195C199.124 106.218 201.857 105.059 204.638 105.01C204.159 104.73 203.628 104.317 203.118 103.706C200.299 104.115 197.586 105.506 195.307 107.638C193.143 109.654 191.369 112.334 190.258 115.47C188.682 115.28 187.17 116.295 186.784 117.87L183.821 129.946C182.623 134.827 185.638 139.801 190.52 140.995H190.517Z" fill="#B23B38"/>
<path d="M202.861 103.492C210.53 100.353 212.082 106.083 212.082 106.083C211.28 105.895 210.746 104.828 209.206 106.215C206.949 108.246 205.313 109.363 203.017 108.59L200.273 108.616L199.964 104.51C199.964 104.51 201.418 103.732 202.864 103.489L202.861 103.492Z" fill="#FFB27D"/>
<path d="M137.425 69.673C137.425 69.673 143.308 76.6515 150.804 73.732C150.804 73.732 152.417 69.8346 152.44 66.9613C152.44 66.6065 152.446 66.266 152.451 65.9401C152.492 62.7033 152.601 60.8887 152.601 60.8887C152.601 60.8887 152.601 60.8887 152.593 60.8887C152.252 60.7473 141.138 56.1835 141.147 56.5643C141.337 65.3169 137.425 69.6759 137.425 69.6759V69.673Z" fill="#FFB27D"/>
<path d="M142.26 58.6472C143.331 60.6349 147.01 64.5208 152.449 65.9401C152.489 62.7033 152.599 60.8887 152.599 60.8887C152.599 60.8887 152.599 60.8887 152.59 60.8887C152.281 60.8051 141.94 58.0645 142.26 58.6501V58.6472Z" fill="#ED975D"/>
<path d="M154.927 60.5511C154.927 60.5511 142.428 63.4879 140.717 55.6786C139.006 47.8694 136.242 42.9882 144.15 40.7813C152.059 38.5744 154.266 41.214 155.472 43.6834C156.678 46.1529 158.135 59.5876 154.927 60.5511Z" fill="#FFB27D"/>
<path d="M141.144 57.8077C140.974 57.9173 138.284 58.7424 133.192 48.5993C132.393 47.0068 131.847 43.5623 133.711 40.5188C135.575 37.4753 140.616 35.4242 146.173 34.8357C151.162 34.3049 153.862 36.1973 155.077 37.8648C157.12 40.6659 158.606 45.8414 155.262 44.9211C154.145 44.6153 150.688 44.021 148.64 44.6182C146.652 45.198 145.965 48.3541 145.818 49.3522C145.671 50.3504 145.443 51.1783 142.959 50.2869C140.474 49.3955 141.836 53.8064 142.234 54.6517C142.234 54.6517 142.572 56.899 141.147 57.8106L141.144 57.8077Z" fill="#A9453D"/>
<path d="M109.299 252.59H101.73C100.144 252.59 98.3806 251 97.9391 248.092C97.4977 245.181 94.2373 243.595 93.5304 241.215C92.8235 238.835 96.4417 235.483 96.4417 235.483L97.0476 234.707L97.6766 233.896L103.672 235.307C103.672 235.307 103.819 236.735 103.912 238.552C103.975 239.865 104.01 241.382 103.935 242.712C103.759 245.885 104.823 249.304 107.645 249.921C110.467 250.539 109.302 252.587 109.302 252.587L109.299 252.59Z" fill="#202E51"/>
<path d="M161.984 252.59H141.923C141.732 252.552 141.585 252.509 141.496 252.466C140.157 251.793 140.575 246.667 140.737 245.083C140.769 244.789 140.789 244.619 140.789 244.619C140.789 244.619 147.844 238.976 148.813 243.298C148.845 243.433 148.879 243.563 148.917 243.696C150.14 247.74 155.617 249.575 158.779 250.089C161.194 250.481 161.823 251.889 161.982 252.593L161.984 252.59Z" fill="#202E51"/>
<path d="M157.942 136.916C157.942 136.916 156.872 150.281 155.611 166.347C153.9 188.171 151.843 214.977 151.638 220.054C151.286 228.873 149.872 242.977 149.872 242.977C149.872 242.977 146.522 246.329 139.819 244.916C139.819 244.916 133.847 224.78 132.139 203.475C132.113 203.126 132.087 202.774 132.061 202.422C130.474 180.734 128.004 135.064 128.004 135.064L157.939 136.916H157.942Z" fill="#F99746"/>
<path d="M157.942 136.916C157.942 136.916 156.872 150.281 155.611 166.347L132.142 203.475C132.116 203.126 132.09 202.774 132.064 202.422C130.477 180.734 128.007 135.064 128.007 135.064L157.942 136.916Z" fill="#ED7D2B"/>
<path d="M153.049 138.506C153.049 138.506 133.737 186.907 121.039 209.654C108.341 232.402 104.373 238.748 104.373 238.748C104.373 238.748 97.0995 235.84 96.4388 233.855C96.4388 233.855 101.295 189.942 109.798 179.24C114.602 173.19 120.246 155.039 120.511 148.692C120.776 142.345 122.231 129.782 122.231 129.782L153.049 138.511V138.506Z" fill="#F99746"/>
<path d="M108.658 129.71L108.453 132.822C108.453 132.822 108.413 134.095 108.479 135.173C108.595 137.043 108.401 139.391 104.754 141.188C104.754 141.188 102.29 142.181 102.192 140.265C102.091 138.35 103.035 138.768 102.836 136.071C102.636 133.37 103.069 131.12 104.852 130.261L106.318 128.57L108.658 129.71Z" fill="#FFB27D"/>
<path d="M106.413 131.977C108.551 132.664 108.892 132.508 108.892 132.508C108.892 132.508 119.296 113.569 120.349 111.838C121.403 110.104 142.436 90.6026 142.436 90.6026L137.032 70.4491C137.032 70.4491 113.107 101.424 110.525 105.869C106.255 113.214 103.753 130.272 103.753 130.272C103.753 130.272 104.734 131.441 106.41 131.98L106.413 131.977Z" fill="#1E3D70"/>
<path d="M161.667 98.5129C161.592 102.653 161.353 107.306 161.027 112.031C161.006 112.311 160.986 112.591 160.966 112.871C160.758 115.799 160.533 118.733 160.276 121.595C160.173 122.743 160.063 123.877 159.947 124.99L159.93 125.14C159.921 125.558 159.87 126.008 159.823 126.421C158.767 137.138 157.662 145.605 157.457 145.735C157.212 145.899 156.938 145.98 156.635 145.946C153.825 145.594 145.437 146.231 138.57 144.737C132.776 143.514 127.788 141.197 122.499 138.073C121.798 137.657 120.196 136.558 120.326 135.739C120.453 134.836 120.69 133.532 120.99 131.893C122.032 126.193 123.829 116.387 124.444 104.909C124.562 102.771 124.738 100.659 124.963 98.5822C125.552 93.176 126.495 88.038 127.762 83.4771C130.116 75.0014 135.206 68.4759 139.545 65.9372C140.114 65.6199 141.536 67.596 144.338 69.3933C146.926 71.0521 149.275 70.5213 151.926 70.2876L154.636 73.859C157.46 77.142 160.467 81.5125 161.289 87.7236C161.35 88.1823 161.405 88.6698 161.448 89.1891C161.676 91.7191 161.731 94.9242 161.667 98.51V98.5129Z" fill="#2A4E96"/>
<path d="M161.667 98.5129C161.592 102.653 161.353 107.306 161.027 112.031C161.006 112.311 160.986 112.591 160.966 112.871C144.909 102.823 142.436 84.432 142.436 84.432C150.336 84.7782 156.612 86.5928 161.448 89.192C161.676 91.722 161.731 94.9271 161.667 98.5129Z" fill="#1E3D70"/>
<path d="M202.238 106.429C202.402 104.049 201.17 103.651 201.17 103.651C201.17 103.651 176.959 99.2629 174.902 98.6167C172.845 97.9705 155.244 79.6662 155.244 79.6662C155.244 79.6662 148.499 72.0588 142.976 73.7407C138.178 75.2004 136.299 78.945 135.662 82.5106C134.9 86.76 136.859 91.0354 140.541 93.2942C148.801 98.36 165.343 108.344 169.238 109.487C177.909 112.028 201.202 109.692 201.202 109.692C201.202 109.692 202.108 108.304 202.238 106.435V106.429Z" fill="#2A4E96"/>
<path d="M108.442 133.89C108.442 133.89 109.025 136.613 109.374 137.51C109.723 138.405 108.283 137.9 107.934 136.694C107.585 135.488 108.442 133.893 108.442 133.893V133.89Z" fill="#FFB27D"/>
<path d="M151.713 313.037L149.3 313.651L191.231 478.369L193.644 477.755L151.713 313.037Z" fill="#2B478B"/>
<path d="M0.900218 476.794H759.724C760.22 476.794 760.624 477.198 760.624 477.694V478.098C760.624 478.594 760.22 478.998 759.724 478.998H0.900218C0.403944 478.998 0 478.594 0 478.098V477.694C0 477.198 0.403944 476.794 0.900218 476.794Z" fill="#2E3552"/>
</svg>
